<?xml version="1.0" encoding="UTF-8"?>
<svg width="200px" height="200px" viewBox="0 0 200 200" version="1.1" xmlns="http://www.w3.org/2000/svg" xmlns:xlink="http://www.w3.org/1999/xlink">
    <!-- Generator: Sketch 55 (78076) - https://sketchapp.com -->
    <title>编组</title>
    <desc>Created with Sketch.</desc>
    <defs>
        <linearGradient x1="55.3375567%" y1="-14.7370779%" x2="65.388876%" y2="92.375829%" id="linearGradient-1">
            <stop stop-color="#D7D9DC" offset="0%"></stop>
            <stop stop-color="#A4A6AA" offset="100%"></stop>
        </linearGradient>
        <filter x="-79.2%" y="-51.9%" width="259.5%" height="204.4%" filterUnits="objectBoundingBox" id="filter-2">
            <feOffset dx="-11" dy="7" in="SourceAlpha" result="shadowOffsetOuter1"></feOffset>
            <feGaussianBlur stdDeviation="7" in="shadowOffsetOuter1" result="shadowBlurOuter1"></feGaussianBlur>
            <feColorMatrix values="0 0 0 0 0.405622742   0 0 0 0 0.413374058   0 0 0 0 0.42875744  0 0 0 0.46020154 0" type="matrix" in="shadowBlurOuter1" result="shadowMatrixOuter1"></feColorMatrix>
            <feMerge>
                <feMergeNode in="shadowMatrixOuter1"></feMergeNode>
                <feMergeNode in="SourceGraphic"></feMergeNode>
            </feMerge>
        </filter>
        <path d="M5.72670869,92.6083979 L10.5229216,85.6466072 L0,75.8600706 L10.5229216,50.8868092 L0,33.4966545 L8.94448334,7.10542736e-15 L53.0821348,0 C57.5004128,-8.11624501e-16 61.0821348,3.581722 61.0821348,8 L61.0821348,84.6083979 C61.0821348,89.0266759 57.5004128,92.6083979 53.0821348,92.6083979 L5.72670869,92.6083979 Z" id="path-3"></path>
        <path d="M51.3078994,0 L42.363416,33.4966545 L52.8863376,50.8868092 L42.363416,75.8600706 L52.8863376,85.6466072 L48.0901247,92.6083979 L8,92.6083979 C3.581722,92.6083979 5.41083001e-16,89.0266759 0,84.6083979 L0,8 C-5.41083001e-16,3.581722 3.581722,8.11624501e-16 8,0 L51.3078994,0 Z" id="path-5"></path>
        <filter x="-70.9%" y="-21.1%" width="200.2%" height="157.2%" filterUnits="objectBoundingBox" id="filter-7">
            <feOffset dx="-11" dy="7" in="SourceAlpha" result="shadowOffsetOuter1"></feOffset>
            <feGaussianBlur stdDeviation="7" in="shadowOffsetOuter1" result="shadowBlurOuter1"></feGaussianBlur>
            <feColorMatrix values="0 0 0 0 0.405622742   0 0 0 0 0.413374058   0 0 0 0 0.42875744  0 0 0 0.46020154 0" type="matrix" in="shadowBlurOuter1"></feColorMatrix>
        </filter>
    </defs>
    <g id="仪表盘" stroke="none" stroke-width="1" fill="none" fill-rule="evenodd">
        <g id="应用详情备份-5" transform="translate(-275.000000, -527.000000)">
            <g id="编组" transform="translate(275.000000, 527.000000)">
                <g id="编组-3" fill="#F5F7F9">
                    <rect id="矩形" x="0" y="0" width="200" height="200"></rect>
                </g>
                <g id="Group-9" transform="translate(15.000000, 26.000000)">
                    <g id="Group-6">
                        <circle id="Oval" fill="url(#linearGradient-1)" cx="73.8896792" cy="73.8896792" r="73.8896792"></circle>
                        <path d="M101.818037,47.3367262 C101.676166,47.3975281 101.351889,47.7420719 100.82494,48.3298233 C100.29799,48.9175747 99.8318425,49.2621186 99.4062294,49.3229204 C99.5481004,49.3229204 99.7102387,49.1405148 99.872377,48.7959709 C100.054783,48.4311597 100.237188,48.0663486 100.399327,47.6407355 C100.581732,47.2353897 100.703336,46.971915 100.784405,46.9111131 C101.189751,46.4246982 102.000442,45.8774814 103.115143,45.3302647 C104.087973,44.9249189 105.952563,44.4790386 108.587311,44.0736928 C110.978851,43.526476 112.78264,43.8912872 113.958142,45.2289282 C113.816271,45.0870572 114.160815,44.6411769 114.951239,43.8507526 C115.741664,43.0805957 116.248346,42.6347154 116.471286,42.5941808 C116.694226,42.4523098 117.200908,42.2901715 118.052134,42.1280332 C118.903361,41.9658948 119.43031,41.7024201 119.632983,41.3376089 L119.855923,39.0068708 C119.004697,39.0676727 118.396678,38.8244652 118.0116,38.2772484 C117.626521,37.7300316 117.403581,36.980142 117.322512,36.068114 C117.322512,36.209985 117.099572,36.4734598 116.673959,36.9193401 C116.673959,36.4329252 116.511821,36.1491832 116.207811,36.068114 C115.883535,36.0073122 115.478189,36.0275794 114.971507,36.1897178 C114.485092,36.3315888 114.181082,36.3721233 114.018944,36.3113215 C113.309589,36.0883813 112.78264,35.8451739 112.438096,35.5208972 C112.073284,35.1966206 111.789542,34.6291366 111.58687,33.7779105 C111.384197,32.9266844 111.222058,32.3997349 111.181524,32.197062 C111.039653,31.8322508 110.715376,31.4674396 110.188427,31.0418266 C109.661477,30.6364808 109.316933,30.2716696 109.19533,29.9676603 C109.134528,29.8257893 109.033191,29.6231164 108.931855,29.4001762 C108.810251,29.1569688 108.708915,28.9340286 108.607578,28.7110885 C108.485974,28.4881483 108.364371,28.3057427 108.202232,28.1436044 C108.040094,27.9814661 107.817154,27.8801296 107.634748,27.8801296 C107.411808,27.8801296 107.168601,28.0625352 106.905126,28.4070791 C106.601117,28.7718903 106.357909,29.1164342 106.114702,29.4812454 C105.871494,29.8460566 105.709356,30.0081949 105.648554,30.0081949 C105.425614,29.8663239 105.243208,29.805522 105.000001,29.8460566 C104.777061,29.8865912 104.614922,29.9068585 104.533853,29.9676603 C104.41225,30.0081949 104.270379,30.1095313 104.067706,30.2919369 C103.844765,30.4743425 103.682627,30.6162135 103.540756,30.6770154 C103.317816,30.8188864 103.034074,30.9202229 102.648995,31.001292 C102.263917,31.0620939 101.959908,31.143163 101.757235,31.2242322 C102.831401,30.859421 102.790867,30.4946098 101.635631,30.0689968 C100.926276,29.7649874 100.379059,29.6839183 99.9534462,29.7447201 C100.601999,29.4407108 100.845207,29.0353651 100.74387,28.4881483 C100.622267,27.9409315 100.338525,27.413982 99.8521097,27.0086363 L100.379059,27.0086363 C100.318257,26.7046269 99.9939808,26.4411522 99.4872986,26.1168756 C98.9603491,25.792599 98.3320631,25.5088569 97.6429753,25.2251149 C96.9336203,24.9211056 96.4877399,24.7387 96.2647998,24.5765617 C95.717583,24.2117505 94.5015457,23.8874739 92.6572225,23.5834646 C90.8331666,23.259188 89.6779311,23.2389207 89.1712489,23.54293 C88.8064377,23.9482758 88.6645667,24.3333542 88.7051013,24.6576308 C88.7456359,24.9819074 88.8875069,25.4480551 89.1104471,26.1371429 C89.3536545,26.8059634 89.4955255,27.2518437 89.4955255,27.4342493 C89.5563274,27.8395951 89.3536545,28.32601 88.9280415,28.8124249 C88.4618938,29.2988398 88.2389537,29.7244529 88.2389537,30.0689968 C88.2389537,30.5554117 88.7253686,31.1228957 89.7184657,31.7106471 C90.6912955,32.2983984 91.0358394,33.0482881 90.792632,33.9603161 C90.5696918,34.5075328 90.022475,35.0952842 89.1104471,35.642501 C88.1984191,36.1897178 87.630935,36.6153308 87.4282622,36.8990728 C87.063451,37.4462896 87.0229164,38.1353774 87.2661239,38.8649998 C87.5093313,39.5946221 87.8741425,40.1621062 88.3808247,40.6079865 C88.5226957,40.7498576 88.5834976,40.9119959 88.542963,41.0133323 C88.5024284,41.1552033 88.3808247,41.3376089 88.1578845,41.4794799 C87.9349444,41.6618855 87.7525388,41.8037565 87.5904005,41.8848257 C87.4079949,42.0064294 87.1850547,42.1077659 86.9013127,42.2699042 L86.5770361,42.4928443 C85.8068791,42.8576555 85.097524,42.6347154 84.4287035,41.8442911 C83.759883,41.0538669 83.2734681,40.1621062 83.0099934,39.0879399 C82.5235784,37.3246859 81.9358271,36.2505196 81.3278084,35.926243 C79.7064254,35.3790262 78.6727937,35.3992935 78.2674479,36.0478467 C77.9026368,35.1358188 76.4636593,34.2237908 73.9302483,33.2914956 C72.1669942,32.6429423 70.1402654,32.5213386 67.78926,32.8861498 C68.1946058,32.8253479 68.1946058,32.2983984 67.78926,31.3053013 C67.3028451,30.2311351 66.6340246,29.8257893 65.7827985,30.0487295 C66.0057387,29.6433837 66.1476097,28.9948305 66.1881443,28.2044063 C66.2489461,27.413982 66.309748,26.9275671 66.309748,26.7856961 C66.5326882,25.8736681 66.9583012,25.0427093 67.5663199,24.3738888 C67.6271217,24.3130869 67.8905965,23.9888103 68.2959422,23.4821281 C68.701288,22.9551786 69.0458319,22.489031 69.2890393,22.063418 C69.5322468,21.6580722 69.5525141,21.4148648 69.3295739,21.4148648 C71.8021831,21.7188741 73.5451698,21.293261 74.6193361,20.2596293 C74.9841473,19.8948181 75.3692258,19.3070668 75.8556407,18.4558407 C76.3217883,17.6046146 76.6865995,17.0168632 76.9703415,16.6520521 C77.6188947,16.2467063 78.1053096,16.0440334 78.4498535,16.084568 C78.8146647,16.1251026 79.3213469,16.3075082 79.9699001,16.6520521 C80.6387207,17.0168632 81.1454029,17.1790015 81.4899468,17.1790015 C82.4627766,17.2398034 83.0099934,16.8547249 83.1315971,16.0237661 C83.2532008,15.17254 82.9694588,14.4631849 82.3411729,13.9159682 C83.1923989,13.97677 83.2937354,13.3890187 82.6654495,12.1121795 C82.3614401,11.6257646 82.1182327,11.3217553 81.8142234,11.159617 C80.9629973,10.8556077 80.0104347,11.0380133 78.9565357,11.6865665 C78.409319,11.9905758 78.4701208,12.2337833 79.1794759,12.5377926 C79.118674,12.4769907 78.7741302,12.8620692 78.1863788,13.6524934 C77.5986274,14.4429177 77.0108761,15.0712036 76.443392,15.4968166 C75.8961752,15.9021624 75.3084239,15.7400241 74.7612071,14.9698671 C74.7004052,14.9090653 74.4977324,14.4226504 74.193723,13.551157 C73.8694464,12.6593963 73.5451698,12.213516 73.2006259,12.1324468 C72.6534092,12.1324468 72.0656578,12.6593963 71.518441,13.7132953 C71.7413812,13.1660785 71.3360354,12.6188617 70.3632056,12.1324468 C69.3903758,11.6460319 68.5391497,11.3622899 67.8297946,11.2812207 C69.1471683,10.4299946 68.9039609,9.47743208 66.9785685,8.4235331 C66.4921536,8.11952378 65.7422639,7.95738547 64.830236,7.89658361 C63.8776734,7.83578175 63.1885856,7.95738547 62.7629726,8.30192937 C62.3981614,8.78834428 62.2157558,9.19369005 62.1954885,9.53823394 C62.1549539,9.86251055 62.3373595,10.1259853 62.722438,10.38946 C63.1075165,10.6326675 63.4723277,10.8150731 63.8371388,10.9569441 C64.20195,11.0988151 64.5870285,11.2609534 65.0734434,11.3622899 C65.539591,11.5041609 65.8233331,11.6054973 65.9652041,11.6865665 C66.9380339,12.3959216 67.221776,12.9026038 66.8164302,13.1660785 C66.6745592,13.2268804 66.3908171,13.3687514 65.9246695,13.551157 C65.4585219,13.7335626 65.0531761,13.8957009 64.6883649,14.0173046 C64.3235538,14.1389083 64.1411482,14.3213139 64.0398117,14.4226504 C63.8168716,14.7266597 63.8168716,15.1928073 64.0398117,15.9021624 C64.2627519,16.6115175 64.1816827,17.1181997 63.8168716,17.3816744 C63.4520604,17.0168632 63.1480511,16.4088446 62.864309,15.5373512 C62.5602997,14.6455905 62.3373595,14.0781065 62.1346866,13.7943644 C62.6211016,14.4429177 61.7496082,14.6455905 59.4796719,14.4429177 L58.4055056,14.3213139 C58.1014963,14.3213139 57.5542795,14.3821158 56.7233207,14.5442541 C55.8720946,14.6861251 55.1424723,14.7266597 54.5749882,14.6658578 C53.9872368,14.605056 53.5008219,14.3010466 53.156278,13.8146317 C52.8522687,13.2674149 52.8522687,12.5580599 53.156278,11.7068338 C53.2170799,11.4028244 53.3792182,11.3420226 53.5616238,11.4838936 C53.2576145,11.2609534 52.8928033,10.9366768 52.4063884,10.4907965 C51.9199735,10.0246489 51.5551623,9.74090682 51.3322221,9.59903581 C48.089456,10.6732021 44.7858881,12.1121795 41.401251,13.9362355 C41.8065967,13.9970373 42.2524771,13.97677 42.6578228,13.8146317 C43.022634,13.6727607 43.4482471,13.4295533 44.0359984,13.1255439 C44.5832152,12.8012673 44.9480264,12.6188617 45.1101647,12.5580599 C47.5017047,11.58523 48.9609494,11.3217553 49.5487008,11.8284375 L50.0756502,11.301488 C51.0484801,12.4364561 51.7578352,13.3079495 52.1834482,13.9565027 C51.6970333,13.6524934 50.622867,13.6322261 49.0217513,13.834899 C47.6233084,14.2402448 46.8531514,14.6861251 46.6910131,15.0914709 C47.1774281,15.942697 47.3598336,16.5709829 47.2179626,17.0168632 C46.9139533,16.7939231 46.5288748,16.4696465 45.9816581,15.942697 C45.4547086,15.4562821 44.9277591,15.0509363 44.4616115,14.7874616 C43.9751965,14.4834522 43.4279798,14.3213139 42.880763,14.2605121 C41.7457949,14.2605121 40.9553706,14.3010466 40.5500249,14.3821158 C30.2542425,20.0164219 22.0054563,27.8193278 15.7631316,37.8313681 C16.2495465,38.317783 16.6751595,38.601525 17.0197034,38.6825942 C17.3237127,38.743396 17.485851,39.0676727 17.5466529,39.6351567 C17.6074548,40.1823735 17.7087912,40.5877193 17.8101276,40.7903921 C17.9317314,41.0133323 18.3168098,40.9119959 19.0464322,40.4661155 C19.6949854,41.0133323 19.7760546,41.7024201 19.3707088,42.4725771 C19.4315107,42.4117752 20.9920919,43.3643377 24.0119178,45.3302647 C25.3292915,46.546302 26.0791812,47.2759243 26.2210522,47.5393991 C26.4439924,48.309556 26.0791812,48.9378419 25.1468859,49.4647914 C25.0860841,49.3229204 24.7618075,48.9986438 24.1943234,48.5122289 C23.6471066,48.025814 23.3025627,47.8636757 23.2417608,48.1068831 C23.0188207,48.4716943 23.039088,49.0999802 23.2822954,50.0728101 C23.5255029,51.0253726 23.8903141,51.471253 24.3969963,51.3699165 C23.9105814,51.3699165 23.5660375,51.9171333 23.4038992,53.0521014 C23.2214936,54.1870696 23.1404244,55.4233741 23.1404244,56.8015497 C23.1404244,58.1797253 23.0998898,58.9904168 23.0188207,59.2944261 L23.2417608,59.4160299 C23.0188207,60.267256 23.2214936,61.4832933 23.8092449,63.0641417 C24.3969963,64.6449902 25.1468859,65.3138107 26.0589139,65.1314051 C25.1468859,65.3543453 25.8359737,66.8743919 28.1667118,69.6712776 C28.5720576,70.2184944 28.8760669,70.5630383 29.0179379,70.6238402 C29.2408781,70.7657112 29.6664912,71.0291859 30.2745098,71.4142644 C30.923063,71.7993429 31.4297452,72.1438868 31.8553583,72.4884307 C32.260704,72.8329746 32.6255152,73.1775185 32.9295245,73.6031315 C33.2335339,73.9679427 33.5780778,74.7583669 34.0036908,75.9744042 C34.4090366,77.2107088 34.9157188,78.0416676 35.4832028,78.4672807 C35.3413318,78.8726264 35.6858757,79.6022488 36.4763,80.5750786 C37.2667242,81.5479084 37.6518027,82.3788673 37.5910008,82.9868859 C37.5301989,82.9868859 37.4288625,83.0274205 37.3275261,83.1084896 C37.2059223,83.1692915 37.1248532,83.2300934 37.0640513,83.2300934 C37.2869915,83.7165083 37.813941,84.2029232 38.7057016,84.7096054 C39.5974623,85.1960203 40.1244118,85.6621679 40.347352,86.087781 C40.4081538,86.3107211 40.489223,86.6349977 40.5702921,87.1619472 C40.631094,87.6483622 40.7526977,88.0537079 40.8945688,88.3171827 C41.0364398,88.621192 41.2999145,88.6819938 41.7457949,88.5401228 C41.8876659,87.1416799 41.0364398,84.9325456 39.2123838,81.9937888 C38.1382176,80.2305347 37.5504662,79.2171703 37.4085952,78.9334283 C37.185655,78.5686171 37.0032494,78.0416676 36.8411111,77.2917779 C36.6587055,76.5621556 36.4965672,76.0554734 36.3749635,75.7717313 C36.5168345,75.7717313 36.7397747,75.8122659 37.0235167,75.9338696 C37.3275261,76.0554734 37.5910008,76.1568098 37.9152774,76.3189481 C38.239554,76.4608191 38.4827615,76.6229574 38.7057016,76.7242939 C38.9286418,76.8661649 39.009711,76.9675013 38.9286418,77.0485705 C38.7057016,77.5349854 38.7867708,78.1632713 39.151582,78.8928937 C39.5163932,79.6225161 39.9217389,80.2913366 40.4081538,80.8588206 C40.8945688,81.4263047 41.5025874,82.0951252 42.2119425,82.8652822 C42.9212976,83.6354391 43.3469106,84.1015867 43.4685143,84.2434578 C43.8738601,84.6488035 44.3805423,85.3581586 44.9480264,86.3107211 C45.4952431,87.2632837 45.4952431,87.7294313 44.9480264,87.7294313 C45.5965796,87.7294313 46.2654001,88.1145098 47.0558243,88.8441321 C47.8259813,89.5737545 48.4339999,90.2628423 48.859613,90.9113955 C49.2244242,91.4586123 49.5081662,92.3909076 49.7108391,93.6677467 C49.9337792,94.9243186 50.0959175,95.7755447 50.2377886,96.2011577 C50.3796596,96.6875726 50.6634016,97.1739875 51.1295492,97.6198679 C51.5956969,98.0860155 52.0213099,98.4102921 52.4266557,98.612965 C52.8320014,98.8359052 53.3994855,99.0993799 54.1088406,99.4641911 C54.8181957,99.8290023 55.264076,100.051942 55.4870162,100.193813 C55.8518273,100.335684 56.4801133,100.700496 57.4529431,101.308514 C58.4055056,101.896266 59.1553953,102.301611 59.7026121,102.544819 C60.4119672,102.848828 60.9591839,102.950165 61.384797,102.950165 C61.7901428,102.950165 62.3170922,102.869095 62.9048436,102.68669 C63.4925949,102.504284 63.9790099,102.382681 64.3235538,102.301611 C65.39772,102.15974 66.3908171,102.68669 67.3839143,103.88246 C68.3567441,105.098497 69.126901,105.82812 69.5930487,106.091594 C72.1264597,107.408968 74.0721193,107.834581 75.4097603,107.24683 C75.2678893,107.307632 75.2678893,107.591374 75.4502949,108.037254 C75.6327005,108.503402 75.9164425,109.030351 76.301521,109.678904 C76.6865995,110.327457 77.0108761,110.83414 77.2540835,111.198951 C77.497291,111.584029 77.6796966,111.888039 77.8215676,112.090712 C78.1863788,112.496057 78.7943974,113.043274 79.74696,113.67156 C80.6589879,114.320113 81.3075412,114.826795 81.6723523,115.252408 C82.0776981,114.948399 82.3411729,114.664657 82.4019747,114.299846 C82.1790345,114.847063 82.4425093,115.556418 83.1315971,116.407644 C83.8409522,117.25887 84.4489708,117.623681 85.0569895,117.48181 C86.0298193,117.25887 86.5365015,116.164436 86.5365015,114.097173 C84.3679017,115.171339 82.6451822,114.502519 81.368343,112.171781 C81.368343,112.110979 81.2872739,111.908306 81.1048683,111.604297 C80.9224627,111.28002 80.7805917,110.996278 80.6995225,110.712536 C80.5779188,110.408527 80.4968496,110.145052 80.4360478,109.820775 C80.3752459,109.496499 80.3752459,109.253291 80.4360478,109.030351 C80.4968496,108.807411 80.6792552,108.706074 80.9629973,108.706074 C81.6115505,108.706074 81.9358271,108.584471 82.0371635,108.320996 C82.0979654,108.077789 82.0371635,107.631908 81.8142234,107.02389 C81.5912832,106.375336 81.4494122,105.929456 81.4088776,105.645714 C81.3480757,105.098497 80.94273,104.389142 80.2536422,103.537916 C79.5442871,102.68669 79.118674,102.15974 78.9970703,101.957068 C78.6322591,102.605621 78.0850424,102.869095 77.3148854,102.808294 C76.5447285,102.747492 75.9975117,102.423215 75.6327005,101.855731 C75.6327005,101.916533 75.5921659,102.119206 75.4705622,102.423215 C75.3489585,102.747492 75.3084239,102.970432 75.3084239,103.112303 C74.3963959,103.112303 73.8694464,103.071768 73.7275754,102.990699 C73.7883773,102.767759 73.8897137,102.15974 73.9910502,101.146376 C74.1126539,100.112744 74.2139903,99.3223201 74.3761286,98.7751033 C74.4369305,98.471094 74.6396034,98.0657482 74.9436127,97.5185314 C75.2678893,96.9713147 75.5110968,96.4443652 75.7340369,95.9984848 C75.9569771,95.5323372 76.0988481,95.1067242 76.1393827,94.7013784 C76.2001846,94.2960326 76.0583136,93.9514887 75.6732351,93.7082813 C75.2678893,93.4650738 74.680138,93.3637374 73.8289119,93.4448065 C72.5115381,93.5056084 71.5995102,94.2149635 71.0725607,95.5526045 C71.0117588,95.7755447 70.8901551,96.1200886 70.7482841,96.6673053 C70.6064131,97.1942548 70.4240075,97.5996006 70.2213346,97.9036099 C69.9983944,98.2076192 69.6943851,98.4305594 69.268772,98.6332323 C68.7823571,98.8561725 67.9513983,98.9372416 66.735361,98.8561725 C65.5193238,98.7751033 64.6883649,98.612965 64.20195,98.329223 C63.2899221,97.7820062 62.4994978,96.7483745 61.8306773,95.2688625 C61.1618568,93.7893504 60.8375802,92.492244 60.8375802,91.3775432 C60.8375802,90.6681881 60.9186494,89.7358928 61.101055,88.5806574 C61.2834605,87.425422 61.4050643,86.5336613 61.4253316,85.9256427 C61.4658661,85.3378913 61.2631933,84.4663979 60.8578475,83.3516971 C61.0807877,83.2098261 61.384797,82.8855495 61.81041,82.3586 C62.2157558,81.8519178 62.580567,81.4668393 62.8845763,81.2438991 C63.0264473,81.1830973 63.1885856,81.1222954 63.3507239,81.0817608 C63.5331295,81.0412262 63.6952678,81.0412262 63.8168716,81.0817608 C63.9587426,81.1222954 64.1208809,81.0614935 64.2222173,80.9196225 C64.3640883,80.7777515 64.4654248,80.5548113 64.5464939,80.2710693 C64.4856921,80.2102674 64.3235538,80.0886637 64.1411482,79.9467927 C63.918208,79.7238525 63.776337,79.6225161 63.7358024,79.6225161 C64.2222173,79.8454562 65.2153144,79.7846544 66.7556283,79.4603778 C68.2554076,79.1361012 69.2485048,79.196903 69.6538505,79.6225161 C70.7280168,80.392673 71.4779064,80.3318712 71.9845886,79.3995759 C71.9845886,79.338774 71.9035195,78.9942301 71.7211139,78.4064788 C71.5387083,77.8187274 71.518441,77.3323125 71.6805793,76.9877686 C72.0453905,78.913161 73.0587549,79.196903 74.7409398,77.9403312 C74.96388,78.1632713 75.4908295,78.3254096 76.3825902,78.4672807 C77.2743508,78.6091517 77.8621022,78.7915573 78.2269134,78.9942301 C78.4498535,79.1361012 78.693061,79.338774 78.9565357,79.5617142 C79.2605451,79.8049217 79.4226834,79.96706 79.5240198,80.0278618 C79.6456235,80.0886637 79.8280291,80.0683964 80.0509693,79.9873273 C80.2941768,79.8657235 80.5981861,79.6427834 80.94273,79.2982395 C81.6520851,80.2710693 82.0776981,81.1222954 82.1993018,81.8316505 C82.9694588,84.6690708 83.6382793,86.2093847 84.2057634,86.4728594 C84.6921783,86.6957996 85.097524,86.7768688 85.3609988,86.6957996 C85.6650081,86.6349977 85.7866118,86.2904539 85.8271464,85.7027025 C85.867681,85.1149511 85.867681,84.6082689 85.8271464,84.2231905 C85.7866118,83.838112 85.7460772,83.3922317 85.6650081,82.926084 L85.5434044,82.0748579 L85.5434044,80.1494656 L85.4218006,79.2982395 C84.3476344,79.0752993 83.7193484,78.6496862 83.4558737,78.0416676 C83.2126662,77.3931144 83.2532008,76.7648285 83.618012,76.0757407 C83.9828232,75.4069202 84.5097727,74.7786342 85.1988605,74.1098137 C85.2596623,74.0490119 85.5636717,73.9071408 86.0500866,73.7247352 C86.5365015,73.5423297 87.1039855,73.3193895 87.6917369,73.0356475 C88.2794883,72.7316381 88.7456359,72.4884307 88.9888433,72.1844214 C90.4683554,70.8670476 90.9953049,69.6104758 90.5696918,68.4957749 C91.0561067,68.4957749 91.4614525,68.1714983 91.7249272,67.5432124 C91.6641254,67.5432124 91.4817198,67.4216087 91.1979777,67.2189358 C90.8939684,66.9959956 90.650761,66.8338573 90.4075535,66.6919863 C90.164346,66.5501153 90.0022077,66.4690461 89.9414059,66.4690461 C90.5899591,66.1042349 90.650761,65.5570182 90.164346,64.7868612 C90.5291572,64.563921 90.7723647,64.1991099 90.9547703,63.6316258 C91.1371759,63.084409 91.3803833,62.7195978 91.7451945,62.5574595 C92.3937477,63.4086856 93.1233701,63.4694875 93.9543289,62.7803997 C94.5015457,62.2331829 94.5420803,61.6454316 94.0759326,61.0982148 C94.4407438,60.6117999 95.1500989,60.2267214 96.2242652,59.9835139 C97.3186987,59.7403065 97.967252,59.4160299 98.1901921,58.9904168 C98.676607,59.1322878 98.9603491,59.0512187 99.0414182,58.7674767 C99.1022201,58.4634673 99.1630219,58.0581216 99.1630219,57.5109048 C99.1630219,56.963688 99.2846257,56.538075 99.4872986,56.2543329 C99.7913079,55.8895218 100.277723,55.5855124 101.068147,55.3017704 C101.838304,54.9977611 102.304452,54.8356228 102.446323,54.7748209 L104.250111,53.6195855 C104.473051,53.3155762 104.473051,53.2142397 104.250111,53.2142397 C105.506683,53.3561107 106.601117,52.9710323 107.513145,52.0590043 C108.2225,51.2888474 107.99956,50.5794923 106.864591,49.9512063 C107.087532,49.5458606 106.986195,49.2013167 106.540315,48.9581092 C106.134969,48.7149018 105.587752,48.5324962 104.959466,48.3906252 C105.182407,48.3298233 105.567485,48.309556 106.195771,48.3500906 C106.80379,48.3906252 107.168601,48.3298233 107.310472,48.1879523 C108.384638,47.4785972 108.100896,46.9313804 106.580849,46.5057674 C105.141872,45.6950759 103.642093,46.1206889 101.818037,47.3367262 L101.818037,47.3367262 Z" id="Path" fill="#D7D9DC" fill-rule="nonzero"></path>
                        <path d="M84.9386253,139.827569 C99.4297362,137.294158 111.792782,130.62622 121.987228,119.864291 C121.764288,119.64135 121.338675,119.479212 120.690121,119.398143 C120.021301,119.276539 119.575421,119.175203 119.393015,119.013064 C118.136443,118.526649 117.285217,118.242907 116.859604,118.161838 C116.920406,117.675423 116.839337,117.209276 116.596129,116.783663 C116.352922,116.378317 116.06918,116.05404 115.744903,115.8311 C115.420627,115.60816 114.995013,115.344685 114.447797,114.979874 C113.90058,114.615063 113.495234,114.392123 113.292561,114.250252 C113.15069,114.108381 112.907483,113.885441 112.562939,113.601698 C112.198128,113.297689 111.975188,113.135551 111.833317,113.034214 C111.691446,112.912611 111.427971,112.77074 111.042892,112.568067 C110.657814,112.345127 110.353804,112.264057 110.151132,112.345127 C109.928191,112.405928 109.603915,112.46673 109.076965,112.46673 L108.752689,112.588334 C108.529749,112.649136 108.347343,112.750472 108.185205,112.851809 C108.002799,112.973413 107.800126,113.074749 107.617721,113.176085 C107.415048,113.257155 107.252909,113.399026 107.212375,113.500362 C107.151573,113.621966 107.151573,113.703035 107.212375,113.763837 C105.732863,112.5478 104.456024,111.777643 103.422392,111.433099 C103.057581,111.372297 102.69277,111.169624 102.267157,110.865615 C101.861811,110.541338 101.476732,110.318398 101.152456,110.135992 C100.828179,109.953587 100.483635,109.913052 100.078289,109.973854 C99.693211,110.034656 99.2878652,110.298131 98.8419849,110.703476 C98.4771737,111.068287 98.2947681,111.595237 98.1934317,112.284325 C98.1326298,112.99368 98.0515606,113.43956 97.9704915,113.6625 C97.4840766,113.297689 97.4840766,112.689671 97.9704915,111.818177 C98.4569064,110.926416 98.5177083,110.298131 98.1934317,109.85225 C97.9704915,109.446904 97.6259476,109.284766 97.0787308,109.386103 C96.5517813,109.507706 96.1261683,109.649577 95.8221589,109.85225 C95.4978823,110.054923 95.0925366,110.358932 94.5858544,110.744011 C94.0994395,111.129089 93.7954301,111.35203 93.6332918,111.433099 C93.4914208,111.493901 93.2076788,111.696573 92.7415312,112.000583 C92.2753835,112.324859 91.9916415,112.568067 91.8497705,112.791007 C91.6268303,113.095016 91.4444247,113.500362 91.2012173,114.047579 C90.9580098,114.594796 90.8161388,115.000141 90.6742678,115.202814 C90.5323968,114.898805 90.127051,114.696132 89.4379632,114.513726 C88.7691427,114.331321 88.4448661,114.128648 88.4448661,113.946242 C88.5867371,114.655597 88.7488754,115.891902 88.8502119,117.634889 C88.9920829,119.398143 89.1744885,120.735784 89.3771613,121.647812 C89.8635763,123.816412 89.4379632,125.498597 88.1205895,126.714634 C86.1951971,128.477888 85.2021,129.876331 85.060229,130.93023 C84.7562197,132.490811 85.2021,133.402839 86.3168008,133.686581 C86.3168008,134.172996 86.0127915,134.922886 85.4655747,135.834914 C84.918358,136.787476 84.6751505,137.537366 84.7359524,138.084582 C84.7156851,138.55073 84.7967542,139.097947 84.9386253,139.827569 L84.9386253,139.827569 Z" id="Path" fill="#D7D9DC" fill-rule="nonzero"></path>
                    </g>
                    <g id="Group-4" filter="url(#filter-2)" transform="translate(107.386334, 29.555872)">
                        <g id="Group-3">
                            <mask id="mask-4" fill="white">
                                <use xlink:href="#path-3"></use>
                            </mask>
                            <use id="Mask" fill="#D8D8D8" xlink:href="#path-3"></use>
                            <g mask="url(#mask-4)">
                                <g transform="translate(-42.363416, 0.000000)">
                                    <rect id="Rectangle" fill="#F3F4F7" x="0" y="0" width="103.445551" height="92.6083979" rx="8"></rect>
                                    <path d="M8,0 L95.4455508,0 C99.8638288,-8.66006284e-15 103.445551,3.581722 103.445551,8 L103.445551,20.6891102 L0,20.6891102 L0,14.3445551 L-8.8817842e-16,8 C-1.42926142e-15,3.581722 3.581722,8.11624501e-16 8,0 Z" id="Combined-Shape" fill="#D7D9DC"></path>
                                    <circle id="Oval" fill="#AFB1B6" cx="13.3001422" cy="11.3297508" r="3.44818503"></circle>
                                    <circle id="Oval-Copy" fill="#A4A6AA" cx="23.1520995" cy="11.3297508" r="3.44818503"></circle>
                                    <circle id="Oval-Copy-2" fill="#E6E8EC" cx="33.0040567" cy="11.3297508" r="3.44818503"></circle>
                                </g>
                            </g>
                        </g>
                    </g>
                    <g id="Group-7" transform="translate(72.904483, 83.741636) rotate(-15.000000) translate(-72.904483, -83.741636) translate(46.304199, 37.437437)">
                        <g id="Group-3-Copy">
                            <mask id="mask-6" fill="white">
                                <use xlink:href="#path-5"></use>
                            </mask>
                            <g id="Mask">
                                <use fill="black" fill-opacity="1" filter="url(#filter-7)" xlink:href="#path-5"></use>
                                <use fill="#F3F4F7" fill-rule="evenodd" xlink:href="#path-5"></use>
                            </g>
                            <g mask="url(#mask-6)">
                                <rect id="Rectangle" fill="#F3F4F7" x="0" y="0" width="103.445551" height="92.6083979" rx="8"></rect>
                                <path d="M8,0 L95.4455508,0 C99.8638288,-8.66006284e-15 103.445551,3.581722 103.445551,8 L103.445551,20.6891102 L0,20.6891102 L0,14.3445551 L-8.8817842e-16,8 C-1.42926142e-15,3.581722 3.581722,8.11624501e-16 8,0 Z" id="Combined-Shape" fill="#D7D9DC"></path>
                                <circle id="Oval" fill="#AFB1B6" cx="13.3001422" cy="11.3297508" r="3.44818503"></circle>
                                <circle id="Oval-Copy" fill="#A4A6AA" cx="23.1520995" cy="11.3297508" r="3.44818503"></circle>
                                <circle id="Oval-Copy-2" fill="#E6E8EC" cx="33.0040567" cy="11.3297508" r="3.44818503"></circle>
                            </g>
                        </g>
                    </g>
                </g>
            </g>
        </g>
    </g>
</svg>