<?xml version="1.0" encoding="UTF-8"?>
<svg width="81px" height="91px" viewBox="0 0 81 91" version="1.1" xmlns="http://www.w3.org/2000/svg" xmlns:xlink="http://www.w3.org/1999/xlink">
    <!-- Generator: Sketch 52.6 (67491) - http://www.bohemiancoding.com/sketch -->
    <title>资源 180</title>
    <desc>Created with Sketch.</desc>
    <defs>
        <linearGradient x1="44.3108233%" y1="57.7920218%" x2="56.7375887%" y2="-4.07025334%" id="linearGradient-1">
            <stop stop-color="#5295F7" stop-opacity="0" offset="0%"></stop>
            <stop stop-color="#5295F7" stop-opacity="0.6" offset="100%"></stop>
        </linearGradient>
    </defs>
    <g id="定稿" stroke="none" stroke-width="1" fill="none" fill-rule="evenodd">
        <g id="0422-新建应用-弹窗" transform="translate(-100.000000, -1146.000000)">
            <g id="资源-180" transform="translate(100.000000, 1146.000000)">
                <path d="M27.14,6.51 C24.2994369,9.72160603 22.3148842,13.5978467 21.37,17.78 C19.84,24.69 17.19,41.55 6.52,49 C-9.11,59.92 5.17,78.11 30.28,74.52 C55.39,70.93 64.39,73.7 65.19,66.38 C65.99,59.06 54.36,60.77 63.39,49.86 C71.23,40.38 65,19.12 58.78,8.3 C51.68,-4.08 31,-0.83 27.14,6.51 Z" id="Path" fill="#5B96FF"></path>
                <path d="M25.3,22.71 C25.3,22.71 21.97,42.71 17.62,46.82 C13.27,50.93 13.73,60.91 22.08,63.73 C30.43,66.55 50.26,57.65 50.26,57.65 C50.26,57.65 64.64,42.55 57.53,24.32 C50.42,6.09 37.2,16.59 37.2,16.59 L25.3,22.71 Z" id="Path" fill="#4893FF" opacity="0.45"></path>
                <path d="M75.48,87.5 C53.0862215,91.245479 30.2200864,91.1744767 7.85,87.29 C4.80053438,86.7536885 2.58245448,84.0962175 2.6,81 L2.6,78.26 C2.61853436,71.0956718 5.4837132,64.2324382 10.5646576,59.181503 C15.6456021,54.1305678 22.5256877,51.3060949 29.69,51.33 L53.86,51.41 C61.020855,51.4311859 67.8800003,54.2961589 72.9284865,59.3746508 C77.9769726,64.4531428 80.8012488,71.3291452 80.78,78.49 L80.78,81.25 C80.46,84.43 78.48,87 75.48,87.5 Z" id="Path" fill="#9BC0FF"></path>
                <path d="M49.5,51.93 C49.5,54.61 33.94,54.61 33.94,51.93 L33.94,30.07 L49.5,30.07 L49.5,51.93 Z" id="Path" fill="#FFFFFF"></path>
                <path d="M49.5,49.5 C46.28,46.28 39.5,45.81 33.94,46.08 L33.94,43.08 L49.5,40.31 L49.5,49.5 Z" id="Path" fill="#CDE0FF"></path>
                <path d="M25.5,9.58 L57.93,9.58 L57.93,29.24 C57.93,33.5391593 56.2221656,37.6622362 53.1822009,40.7022009 C50.1422362,43.7421656 46.0191593,45.45 41.72,45.45 C37.4191083,45.4526532 33.2934619,43.7459902 30.2513341,40.7057379 C27.2092062,37.6654856 25.4999992,33.5408925 25.5,29.24 L25.5,9.58 Z" id="Path" fill="#FFFFFF"></path>
                <path d="M25.5,9.58 L57.93,9.58 L57.93,29.24 C57.93,33.5391593 56.2221656,37.6622362 53.1822009,40.7022009 C50.1422362,43.7421656 46.0191593,45.45 41.72,45.45 C37.4191083,45.4526532 33.2934619,43.7459902 30.2513341,40.7057379 C27.2092062,37.6654856 25.4999992,33.5408925 25.5,29.24 L25.5,9.58 Z" id="Path" fill="url(#linearGradient-1)"></path>
                <path d="M23,16.39 C22.9069479,17.6643251 22.9505293,18.9449492 23.13,20.21 C23.13,21.13 22.9,26.72 23.82,26.82 C28.62,27.31 43.71,23.36 50.05,17.49 C50.9678599,16.6530279 52.3785693,16.6749334 53.27,17.54 C55.13,19.32 58.13,26.82 60.51,26.82 C60.51,26.82 60.51,21.54 60.51,15.68 C60.2178093,9.35942757 56.0699974,3.86874163 50.07,1.86 C41.45,-1.08 25,2 23,16.39 Z" id="Path" fill="#5B96FF"></path>
                <path d="M49.5,51.37 C72.62,54.48 70.83,85.48 62.83,89.17 C67.1,88.86 65.53,89.17 75.53,87.4 C78.53,86.87 80.44,84.52 80.8,81.13 C81.86,66.86 72.06,49.71 49.5,51.37 Z" id="Path" fill="#5B96FF" opacity="0.46"></path>
                <rect id="Rectangle" fill="#5295F7" x="37.2" y="36.55" width="7.94" height="4.76" rx="2.38"></rect>
                <path d="M43.07,40.18 C42.07,40.18 41.39,40.12 41.29,40.12 L41.5,37.64 C41.6,37.64 51.06,38.39 56.1,33.64 C58.31,31.53 59.37,28.59 59.23,24.91 L61.71,24.82 C61.87,29.25 60.56,32.82 57.8,35.44 C53.34,39.64 46.34,40.18 43.07,40.18 Z" id="Path" fill="#5295F7"></path>
                <path d="M50.83,54.18 C48.85634,54.4993516 46.941721,55.1128387 45.15,56 C45.0363611,55.2201497 44.3870946,54.6295266 43.6,54.59 L39.47,54.59 C38.6474598,54.6904997 37.9822041,55.3073731 37.82,56.12 C35.8003983,55.2133638 33.6831226,54.542278 31.51,54.12 C30.92,54.01 30.38,54.6 30.38,55.37 C30.2348896,57.2638911 30.2348896,59.1661089 30.38,61.06 C30.38,61.83 30.92,62.42 31.51,62.31 C33.6915415,61.9213191 35.8128698,61.2489488 37.82,60.31 C38.02,60.71 38.42,61.71 39.47,61.84 L43.6,61.84 C44.32,61.84 44.93,60.84 45.15,60.43 C46.957008,61.2855749 48.8657325,61.9072545 50.83,62.28 C51.42,62.39 51.96,61.8 51.96,61.03 C52.2099746,59.1415698 52.2099746,57.2284302 51.96,55.34 C52,54.66 51.42,54.07 50.83,54.18 Z" id="Path" fill="#FFD766"></path>
            </g>
        </g>
    </g>
</svg>