<?xml version="1.0" encoding="UTF-8"?>
<svg width="423px" height="454px" viewBox="0 0 423 454" version="1.1" xmlns="http://www.w3.org/2000/svg" xmlns:xlink="http://www.w3.org/1999/xlink">
    <!-- Generator: Sketch 52.4 (67378) - http://www.bohemiancoding.com/sketch -->
    <title>pic</title>
    <desc>Created with Sketch.</desc>
    <defs>
        <linearGradient x1="50%" y1="83.5745418%" x2="50%" y2="18.2361268%" id="linearGradient-1">
            <stop stop-color="#5287DD" offset="0%"></stop>
            <stop stop-color="#1C4ECD" offset="100%"></stop>
        </linearGradient>
        <linearGradient x1="72.8749511%" y1="73.6455615%" x2="29.1081539%" y2="29.6592032%" id="linearGradient-2">
            <stop stop-color="#EEF5FF" offset="0%"></stop>
            <stop stop-color="#B6D2FF" offset="100%"></stop>
        </linearGradient>
        <linearGradient x1="0%" y1="33.96955%" x2="100%" y2="67.5783233%" id="linearGradient-3">
            <stop stop-color="#E8F3FF" offset="0%"></stop>
            <stop stop-color="#9DC8FF" offset="100%"></stop>
        </linearGradient>
        <linearGradient x1="100%" y1="67.5783233%" x2="2.22044605e-14%" y2="33.96955%" id="linearGradient-4">
            <stop stop-color="#E8F3FF" offset="0%"></stop>
            <stop stop-color="#9DC8FF" offset="100%"></stop>
        </linearGradient>
        <linearGradient x1="28.8306005%" y1="92.0279709%" x2="61.5372256%" y2="18.2230221%" id="linearGradient-5">
            <stop stop-color="#E3F1FF" offset="0%"></stop>
            <stop stop-color="#97C5FF" offset="100%"></stop>
        </linearGradient>
        <linearGradient x1="2.62373555%" y1="34.8513553%" x2="100%" y2="67.5783233%" id="linearGradient-6">
            <stop stop-color="#A1CFFD" offset="0%"></stop>
            <stop stop-color="#7BA8FF" offset="100%"></stop>
        </linearGradient>
        <linearGradient x1="38.1165302%" y1="85.9779474%" x2="67.7201236%" y2="12.7654733%" id="linearGradient-7">
            <stop stop-color="#CBE5FF" offset="0%"></stop>
            <stop stop-color="#9DC8FF" offset="100%"></stop>
        </linearGradient>
        <linearGradient x1="38.1165302%" y1="85.9779474%" x2="67.7201236%" y2="12.7654733%" id="linearGradient-8">
            <stop stop-color="#E8F4FF" offset="0%"></stop>
            <stop stop-color="#9DC8FF" offset="100%"></stop>
        </linearGradient>
        <linearGradient x1="28.8306005%" y1="92.0279709%" x2="61.5372256%" y2="18.2230221%" id="linearGradient-9">
            <stop stop-color="#A9FFFA" offset="0%"></stop>
            <stop stop-color="#86EDFF" offset="100%"></stop>
        </linearGradient>
        <linearGradient x1="63.0930778%" y1="29.4455156%" x2="44.3524759%" y2="80.6010842%" id="linearGradient-10">
            <stop stop-color="#89F9FF" stop-opacity="0" offset="0%"></stop>
            <stop stop-color="#33EAFF" offset="100%"></stop>
        </linearGradient>
        <linearGradient x1="50%" y1="25.9325933%" x2="50%" y2="100%" id="linearGradient-11">
            <stop stop-color="#D0E6FF" offset="0%"></stop>
            <stop stop-color="#DAEBFF" stop-opacity="0" offset="100%"></stop>
        </linearGradient>
        <radialGradient cx="21.4119628%" cy="26.0607747%" fx="21.4119628%" fy="26.0607747%" r="54.1044235%" gradientTransform="translate(0.214120,0.260608),scale(0.997922,1.000000),rotate(27.446987),translate(-0.214120,-0.260608)" id="radialGradient-12">
            <stop stop-color="#EFF7FF" offset="0%"></stop>
            <stop stop-color="#8EC1FF" offset="100%"></stop>
        </radialGradient>
        <linearGradient x1="0%" y1="86.6210603%" x2="100%" y2="11.0897787%" id="linearGradient-13">
            <stop stop-color="#428EFF" offset="0%"></stop>
            <stop stop-color="#428EFF" offset="100%"></stop>
        </linearGradient>
    </defs>
    <g id="Page-1" stroke="none" stroke-width="1" fill="none" fill-rule="evenodd">
        <g id="01_欢迎首页" transform="translate(-158.000000, -486.000000)">
            <g id="pic" transform="translate(119.000000, 420.000000)">
                <g id="Group-4" transform="translate(39.000000, 44.000000)">
                    <path d="M176.048353,356.057668 L288.839386,308.134789 C290.872611,307.270908 293.22118,308.218849 294.08506,310.252075 C294.480806,311.1835 294.508789,312.23031 294.163369,313.181548 L251.839954,429.734423 C251.435676,430.84775 250.558771,431.724655 249.445444,432.128934 L132.804483,474.484335 C130.728009,475.238357 128.433438,474.166298 127.679416,472.089824 C127.337541,471.148348 127.361324,470.112871 127.746064,469.188085 L173.919407,358.202688 C174.321249,357.236792 175.085507,356.466764 176.048353,356.057668 Z" id="Rectangle" fill="url(#linearGradient-1)" opacity="0.769075533" transform="translate(210.921393, 391.270436) rotate(-315.000000) translate(-210.921393, -391.270436) "></path>
                    <path d="M161.08908,342.019698 C160.777252,342.151647 160.529784,342.400468 160.399912,342.712633 L90.7311187,510.171654 C90.6072761,510.469328 90.5995973,510.802484 90.7095942,511.105525 C90.9527117,511.775312 91.693898,512.121606 92.3650802,511.878994 L268.712622,448.13465 C269.073164,448.004325 269.357106,447.720973 269.487702,447.361181 L333.32364,271.493588 C333.434782,271.187394 333.425746,270.85058 333.298349,270.550758 C333.019671,269.89491 332.26098,269.588684 331.603766,269.866782 L161.08908,342.019698 Z M159.575307,338.457144 L330.089994,266.304228 C332.71885,265.191834 335.753611,266.416739 336.868322,269.040131 C337.377914,270.239419 337.414054,271.586677 336.969488,272.811453 L273.13355,448.679046 C272.611165,450.118214 271.475398,451.251621 270.033232,451.77292 L93.6856897,515.517265 C91.0009611,516.487713 88.0362159,515.102539 87.0637459,512.42339 C86.623758,511.211226 86.6544732,509.8786 87.1498436,508.687906 L156.818637,341.228884 C157.338123,339.980226 158.327996,338.984941 159.575307,338.457144 Z" id="Rectangle-Copy-3" fill="url(#linearGradient-2)" fill-rule="nonzero" transform="translate(212.016617, 390.860305) rotate(-315.000000) translate(-212.016617, -390.860305) "></path>
                    <g id="Group-Copy-2" transform="translate(101.523710, 181.200101)">
                        <polygon id="Rectangle" fill="url(#linearGradient-3)" points="-2.84217094e-14 105.768986 106.234628 154.605745 106.234628 233.287551 -2.84217094e-14 184.450793"></polygon>
                        <polygon id="Rectangle" fill="url(#linearGradient-4)" transform="translate(159.106591, 169.528269) scale(-1, 1) translate(-159.106591, -169.528269) " points="105.989277 105.768986 212.223905 154.605745 212.223905 233.287551 105.989277 184.450793"></polygon>
                        <polygon id="Rectangle" fill="url(#linearGradient-5)" transform="translate(106.431699, 106.053663) rotate(-315.000000) translate(-106.431699, -106.053663) " points="75.072927 76.3053408 181.324329 31.1610336 141.422694 141.044658 31.5390688 180.946293"></polygon>
                    </g>
                    <g id="Group-Copy-3" transform="translate(101.523710, 90.909503)">
                        <polygon id="Rectangle" fill="url(#linearGradient-3)" points="0 105.768986 106.234628 154.605745 106.234628 233.287551 0 184.450793"></polygon>
                        <g id="Group-3" transform="translate(15.510626, 136.725762)">
                            <polygon id="Rectangle" fill="url(#linearGradient-6)" points="3.86357613e-14 4.08562073e-14 7.35359937 3.7323169 7.35359937 33.0698132 3.86357613e-14 29.3374963"></polygon>
                            <polygon id="Rectangle-Copy-4" fill="url(#linearGradient-6)" points="12.9255216 6.44932842 20.279121 10.1816453 20.279121 39.5191416 12.9255216 35.7868247"></polygon>
                            <polygon id="Path" fill="#2B7CF5" points="-2.44249065e-14 29.2529902 7.35092997 32.927441 7.35092997 25.7973137"></polygon>
                            <polygon id="Path-Copy" fill="#2B7CF5" points="12.9255216 35.7023186 20.2764516 39.3767694 20.2764516 32.2466421"></polygon>
                        </g>
                        <polygon id="Rectangle" fill="url(#linearGradient-4)" transform="translate(159.106591, 169.528269) scale(-1, 1) translate(-159.106591, -169.528269) " points="105.989277 105.768986 212.223905 154.605745 212.223905 233.287551 105.989277 184.450793"></polygon>
                        <polygon id="Rectangle" fill="url(#linearGradient-7)" transform="translate(106.431699, 106.053663) rotate(-315.000000) translate(-106.431699, -106.053663) " points="75.072927 76.3053408 181.324329 31.1610336 141.422694 141.044658 31.5390688 180.946293"></polygon>
                    </g>
                    <path d="M161.08908,178.495707 C160.777252,178.627656 160.529784,178.876477 160.399912,179.188642 L90.7311187,346.647664 C90.6072761,346.945337 90.5995973,347.278494 90.7095942,347.581535 C90.9527117,348.251322 91.693898,348.597616 92.3650802,348.355003 L268.712622,284.610659 C269.073164,284.480334 269.357106,284.196982 269.487702,283.83719 L333.32364,107.969598 C333.434782,107.663404 333.425746,107.326589 333.298349,107.026767 C333.019671,106.370919 332.26098,106.064693 331.603766,106.342792 L161.08908,178.495707 Z M159.575307,174.933153 L330.089994,102.780238 C332.71885,101.667843 335.753611,102.892749 336.868322,105.516141 C337.377914,106.715428 337.414054,108.062686 336.969488,109.287463 L273.13355,285.155055 C272.611165,286.594224 271.475398,287.72763 270.033232,288.24893 L93.6856897,351.993274 C91.0009611,352.963723 88.0362159,351.578548 87.0637459,348.899399 C86.623758,347.687236 86.6544732,346.35461 87.1498436,345.163915 L156.818637,177.704894 C157.338123,176.456235 158.327996,175.46095 159.575307,174.933153 Z" id="Rectangle-Copy" fill="url(#linearGradient-2)" fill-rule="nonzero" transform="translate(212.016617, 227.336314) rotate(-315.000000) translate(-212.016617, -227.336314) "></path>
                    <path d="M161.08908,136.931054 C160.777252,137.063003 160.529784,137.311824 160.399912,137.623989 L90.7311187,305.08301 C90.6072761,305.380684 90.5995973,305.713841 90.7095942,306.016882 C90.9527117,306.686669 91.693898,307.032962 92.3650802,306.79035 L268.712622,243.046006 C269.073164,242.915681 269.357106,242.632329 269.487702,242.272537 L333.32364,66.4049446 C333.434782,66.0987505 333.425746,65.761936 333.298349,65.4621142 C333.019671,64.8062661 332.26098,64.5000398 331.603766,64.7781384 L161.08908,136.931054 Z M159.575307,133.3685 L330.089994,61.2155847 C332.71885,60.1031901 335.753611,61.3280956 336.868322,63.9514877 C337.377914,65.1507748 337.414054,66.4980331 336.969488,67.7228094 L273.13355,243.590402 C272.611165,245.02957 271.475398,246.162977 270.033232,246.684277 L93.6856897,310.428621 C91.0009611,311.39907 88.0362159,310.013895 87.0637459,307.334746 C86.623758,306.122583 86.6544732,304.789957 87.1498436,303.599262 L156.818637,136.140241 C157.338123,134.891582 158.327996,133.896297 159.575307,133.3685 Z" id="Rectangle-Copy-2" fill="url(#linearGradient-2)" fill-rule="nonzero" transform="translate(212.016617, 185.771661) rotate(-315.000000) translate(-212.016617, -185.771661) "></path>
                    <g id="Group" transform="translate(101.523710, 0.611296)">
                        <polygon id="Rectangle" fill="url(#linearGradient-3)" points="0 105.776596 106.234628 154.613355 106.234628 233.295161 0 184.458403"></polygon>
                        <g id="Group-3" transform="translate(15.510626, 136.733372)">
                            <polygon id="Rectangle" fill="url(#linearGradient-6)" points="3.86357613e-14 4.08562073e-14 7.35359937 3.7323169 7.35359937 33.0698132 3.86357613e-14 29.3374963"></polygon>
                            <polygon id="Rectangle-Copy-4" fill="url(#linearGradient-6)" points="12.9255216 6.44932842 20.279121 10.1816453 20.279121 39.5191416 12.9255216 35.7868247"></polygon>
                            <polygon id="Path" fill="#2B7CF5" points="-2.44249065e-14 29.2529902 7.35092997 32.927441 7.35092997 25.7973137"></polygon>
                            <polygon id="Path-Copy" fill="#2B7CF5" points="12.9255216 35.7023186 20.2764516 39.3767694 20.2764516 32.2466421"></polygon>
                        </g>
                        <polygon id="Rectangle" fill="url(#linearGradient-4)" transform="translate(159.106591, 169.535879) scale(-1, 1) translate(-159.106591, -169.535879) " points="105.989277 105.776596 212.223905 154.613355 212.223905 233.295161 105.989277 184.458403"></polygon>
                        <polygon id="Rectangle" fill="url(#linearGradient-8)" transform="translate(106.431699, 106.061273) rotate(-315.000000) translate(-106.431699, -106.061273) " points="75.072927 76.3129506 181.324329 31.1686434 141.422694 141.052268 31.5390688 180.953903"></polygon>
                        <polygon id="Rectangle" fill="url(#linearGradient-9)" transform="translate(106.431699, 106.061273) rotate(-315.000000) translate(-106.431699, -106.061273) " points="88.6032464 89.1484121 149.010525 63.4824474 126.325185 125.954759 63.8528728 148.640099"></polygon>
                        <polygon id="Rectangle-Copy-7" fill="url(#linearGradient-10)" opacity="0.5" transform="translate(58.661468, 63.218044) scale(-1, 1) translate(-58.661468, -63.218044) " points="11.0883091 20.8235981 106.234628 45.1669408 70.7910589 105.612491 11.0883091 81.2691479"></polygon>
                        <polygon id="Rectangle-Copy-7" fill="url(#linearGradient-10)" opacity="0.5" points="105.989277 20.6454608 192.274704 44.9888034 165.692027 105.434353 105.989277 81.6910858"></polygon>
                        <polygon id="Rectangle-Copy-6" fill="url(#linearGradient-10)" opacity="0.5" points="11.0883091 46.4287424 106.234628 73.5299538 106.234628 133.975504 46.5318778 106.874292"></polygon>
                        <polygon id="Rectangle-Copy-6" fill="url(#linearGradient-10)" opacity="0.5" transform="translate(149.533598, 89.660291) scale(-1, 1) translate(-149.533598, -89.660291) " points="105.989277 45.3310461 193.077918 73.5439858 193.077918 133.989536 132.571954 105.776596"></polygon>
                    </g>
                    <g id="Group-2" transform="translate(338.060756, 155.402788)">
                        <path d="M0,61.9135528 L0,11.6087912 L23.2659389,11.6087912 L23.2659389,61.9135528 C23.2659389,68.3249111 18.0576811,73.522344 11.6329695,73.522344 C5.20825783,73.522344 0,68.3249111 0,61.9135528 Z" id="Combined-Shape" fill="url(#linearGradient-11)" opacity="0.400000006"></path>
                        <ellipse id="Oval-Copy-2" fill="url(#radialGradient-12)" cx="11.6329695" cy="11.6087912" rx="11.6329695" ry="11.6087912"></ellipse>
                    </g>
                    <g id="Group-2-Copy" transform="translate(0.704641, 288.258953)">
                        <path d="M0,61.9135528 L0,11.6087912 L23.2659389,11.6087912 L23.2659389,61.9135528 C23.2659389,68.3249111 18.0576811,73.522344 11.6329695,73.522344 C5.20825783,73.522344 0,68.3249111 0,61.9135528 Z" id="Combined-Shape" fill="url(#linearGradient-11)" opacity="0.400000006"></path>
                        <ellipse id="Oval-Copy-2" fill="url(#radialGradient-12)" cx="11.6329695" cy="11.6087912" rx="11.6329695" ry="11.6087912"></ellipse>
                    </g>
                    <g id="Group-2-Copy-2" transform="translate(399.577174, 302.447476)">
                        <path d="M0,61.9135528 L0,11.6087912 L23.2659389,11.6087912 L23.2659389,61.9135528 C23.2659389,68.3249111 18.0576811,73.522344 11.6329695,73.522344 C5.20825783,73.522344 0,68.3249111 0,61.9135528 Z" id="Combined-Shape" fill="url(#linearGradient-11)" opacity="0.400000006"></path>
                        <ellipse id="Oval-Copy-2" fill="url(#radialGradient-12)" cx="11.6329695" cy="11.6087912" rx="11.6329695" ry="11.6087912"></ellipse>
                    </g>
                    <g id="Group-5" transform="translate(219.145957, 163.141982)">
                        <polygon id="Rectangle" fill="url(#linearGradient-13)" points="-7.10542736e-15 40.629229 89.1860992 -3.39385224e-15 89.1860992 5.15946274 -7.10542736e-15 45.7886917"></polygon>
                        <polygon id="Rectangle" fill="#75B4FF" points="84.5999556 2.08924351 89.1860992 -9.61110118e-15 89.1860992 5.15946274"></polygon>
                    </g>
                    <g id="Group-5-Copy" transform="translate(219.145957, 174.750773)">
                        <polygon id="Rectangle" fill="url(#linearGradient-13)" points="-7.10542736e-15 40.629229 89.1860992 -3.39385224e-15 89.1860992 5.15946274 -7.10542736e-15 45.7886917"></polygon>
                        <polygon id="Rectangle" fill="#75B4FF" points="84.5999556 2.08924351 89.1860992 -9.61110118e-15 89.1860992 5.15946274"></polygon>
                    </g>
                    <rect id="Rectangle" fill="#F2F7FF" x="237.241687" y="298.577878" width="3.87765649" height="162.523076"></rect>
                    <rect id="Rectangle-Copy-5" fill="#F2F7FF" x="286.358669" y="275.360296" width="3.87765649" height="163.812942"></rect>
                    <polygon id="Path-4-Copy" fill="#F2F7FF" fill-rule="nonzero" points="240.647211 340.190019 239.006371 336.683938 288.551709 313.593092 290.192549 317.099173"></polygon>
                    <polygon id="Path-4-Copy-2" fill="#F2F7FF" fill-rule="nonzero" points="240.647211 381.465721 239.006371 377.95964 288.551709 354.868794 290.192549 358.374875"></polygon>
                    <polygon id="Path-4-Copy-3" fill="#F2F7FF" fill-rule="nonzero" points="240.647211 421.451557 239.006371 417.945476 288.551709 394.85463 290.192549 398.360711"></polygon>
                </g>
            </g>
        </g>
    </g>
</svg>