<?xml version="1.0" encoding="UTF-8"?>
<svg width="271px" height="269px" viewBox="0 0 271 269" version="1.1" xmlns="http://www.w3.org/2000/svg" xmlns:xlink="http://www.w3.org/1999/xlink">
    <!-- Generator: Sketch 52.6 (67491) - http://www.bohemiancoding.com/sketch -->
    <title>Group 5</title>
    <desc>Created with Sketch.</desc>
    <defs>
        <circle id="path-1" cx="100.5" cy="100.5" r="100.5"></circle>
        <filter x="-28.1%" y="-21.1%" width="156.2%" height="156.2%" filterUnits="objectBoundingBox" id="filter-2">
            <feMorphology radius="6" operator="dilate" in="SourceAlpha" result="shadowSpreadOuter1"></feMorphology>
            <feOffset dx="0" dy="14" in="shadowSpreadOuter1" result="shadowOffsetOuter1"></feOffset>
            <feGaussianBlur stdDeviation="14.5" in="shadowOffsetOuter1" result="shadowBlurOuter1"></feGaussianBlur>
            <feComposite in="shadowBlurOuter1" in2="SourceAlpha" operator="out" result="shadowBlurOuter1"></feComposite>
            <feColorMatrix values="0 0 0 0 0   0 0 0 0 0.248661058   0 0 0 0 0.416533801  0 0 0 0.170261549 0" type="matrix" in="shadowBlurOuter1"></feColorMatrix>
        </filter>
    </defs>
    <g id="定稿" stroke="none" stroke-width="1" fill="none" fill-rule="evenodd">
        <g id="-0422-新建空白页面" transform="translate(-435.000000, -1441.000000)">
            <g id="Group-5" transform="translate(470.000000, 1461.000000)">
                <g id="Oval-Copy-2">
                    <use fill="black" fill-opacity="1" filter="url(#filter-2)" xlink:href="#path-1"></use>
                    <use stroke="#FFFFFF" stroke-width="12" fill="#107FF0" fill-rule="evenodd" xlink:href="#path-1"></use>
                </g>
                <g id="setting" transform="translate(39.000000, 43.000000)">
                    <rect id="Rectangle" fill="#000000" opacity="0" x="0" y="0" width="122" height="122"></rect>
                    <path d="M120.436748,46.7513269 C120.159193,45.5457359 119.373686,44.5187919 118.282217,43.9345709 C117.190748,43.3503499 115.899817,43.2658564 114.741382,43.7028178 C109.091097,45.8327138 102.728564,43.5547273 99.718597,38.3241892 C96.70863,33.0936511 97.9395769,26.4542788 102.625026,22.6477496 C103.585375,21.8689032 104.162428,20.7137897 104.208083,19.4788697 C104.253737,18.2439497 103.763549,17.0494559 102.863326,16.2019561 C95.9891618,9.73220639 87.7112687,4.93725294 78.6758913,2.19143189 C77.4801578,1.82926209 76.1857891,2.00597723 75.1311621,2.67538003 C74.0765352,3.34478283 73.3664922,4.44032686 73.1866543,5.67561239 C72.2903672,11.7100709 67.105184,16.1783387 60.9988085,16.1783387 C54.892433,16.1783387 49.7072498,11.7100709 48.8109627,5.67561239 C48.6329159,4.43811562 47.9228087,3.34000629 46.8668041,2.66916649 C45.8107995,1.9983267 44.5142129,1.82165944 43.3169597,2.1854801 C34.2815823,4.93130115 26.0036892,9.72625459 19.1295251,16.1960043 C18.2293016,17.0435041 17.7391137,18.2379979 17.7847684,19.4729179 C17.8304232,20.7078379 18.4074757,21.8629514 19.3678249,22.6417978 C24.0468034,26.449999 25.274875,33.0841803 22.2686333,38.312292 C19.2623917,43.5404037 12.907323,45.8225095 7.2574266,43.7028178 C6.0989917,43.2658564 4.80806009,43.3503499 3.71659126,43.9345709 C2.62512244,44.5187919 1.83961507,45.5457359 1.56206022,46.7513269 C-0.512205574,55.7628394 -0.520759205,65.1262052 1.53703873,74.1414852 C1.81305608,75.3500414 2.5993943,76.3799748 3.69308683,76.9654431 C4.78677936,77.5509113 6.08065573,77.6345446 7.24074561,77.1947558 C12.9030898,75.0501353 19.2858238,77.3367572 22.2936948,82.5874922 C25.3015658,87.8382272 24.0417436,94.494493 19.3225479,98.2855348 C18.3548224,99.0597765 17.7697524,100.214465 17.7181295,101.451999 C17.6665067,102.689534 18.153381,103.888852 19.0532691,104.740851 C25.9408577,111.244106 34.2449232,116.062048 43.3121937,118.815655 C44.5079272,119.177825 45.8022959,119.001109 46.8569229,118.331707 C47.9115498,117.662304 48.6215928,116.56676 48.8014307,115.331474 C49.6977178,109.297016 54.882901,104.828748 60.9892765,104.828748 C67.0956521,104.828748 72.2808352,109.297016 73.1771223,115.331474 C73.3569602,116.56676 74.0670032,117.662304 75.1216301,118.331707 C76.1762571,119.001109 77.4706258,119.177825 78.6663593,118.815655 C87.7370276,116.063389 96.0444875,111.245371 102.934816,104.740851 C103.83569,103.89054 104.324396,102.692508 104.275063,101.455325 C104.225729,100.218143 103.643177,99.0627466 102.677452,98.2867251 C97.9663633,94.4927771 96.7117381,87.8418552 99.7173787,82.5950138 C102.723019,77.3481724 109.098509,75.059781 114.759254,77.1959462 C115.919344,77.6357349 117.213221,77.5521017 118.306913,76.9666334 C119.400606,76.3811652 120.186944,75.3512318 120.462961,74.1426756 C122.520759,65.1273956 122.512206,55.7640298 120.43794,46.7525173 L120.436748,46.7513269 Z M60.9940425,79.1897973 C50.6792335,79.1897973 42.2875044,70.8060996 42.2875044,60.5011626 C42.2875044,50.1962256 50.6792335,41.8125279 60.9940425,41.8125279 C71.3088515,41.8125279 79.7005806,50.1962256 79.7005806,60.5011626 C79.7005806,70.8060996 71.3088515,79.1897973 60.9940425,79.1897973 Z" id="Shape" fill="#FFFDFD" fill-rule="nonzero"></path>
                </g>
            </g>
        </g>
    </g>
</svg>