<?xml version="1.0" encoding="UTF-8"?>
<svg width="46px" height="46px" viewBox="0 0 46 46" version="1.1" xmlns="http://www.w3.org/2000/svg" xmlns:xlink="http://www.w3.org/1999/xlink">
    <!-- Generator: Sketch 52.6 (67491) - http://www.bohemiancoding.com/sketch -->
    <title>系统icon/删除 copy</title>
    <desc>Created with Sketch.</desc>
    <g id="系统icon/删除-copy" stroke="none" stroke-width="1" fill="none" fill-rule="evenodd">
        <g id="close-circle-fill">
            <rect id="Rectangle" fill="#000000" opacity="0" x="0" y="0" width="46" height="46"></rect>
            <path d="M30.8409091,8.36363636 C22.4695718,8.36363636 15.6818182,15.15139 15.6818182,23.5227273 C15.6818182,31.8940645 22.4695718,38.6818182 30.8409091,38.6818182 C39.2122463,38.6818182 46,31.8940645 46,23.5227273 C46,15.15139 39.2122463,8.36363636 30.8409091,8.36363636 Z M36.3256265,29.2727273 L34.1370452,29.2624716 L30.8409091,25.2114906 L27.548089,29.2590531 L25.3561917,29.2693087 C25.2102863,29.2693087 25.0909091,29.1496595 25.0909091,28.9958248 C25.0909091,28.9308723 25.1141213,28.8693384 25.1539137,28.8180602 L29.4680717,23.5193087 L25.1539137,18.2239758 C25.1141213,18.1726975 25.0909091,18.1111637 25.0909091,18.0462112 C25.0909091,17.895795 25.2102863,17.7727273 25.3561917,17.7727273 L27.548089,17.7829829 L30.8409091,21.8339639 L34.1337292,17.7864015 L36.3223105,17.7761458 C36.4682159,17.7761458 36.5875931,17.895795 36.5875931,18.0496298 C36.5875931,18.1145822 36.5643808,18.1761161 36.5245884,18.2273943 L32.2170625,23.5227273 L36.5279045,28.8214788 C36.5676969,28.872757 36.5909091,28.9342909 36.5909091,28.9992433 C36.5909091,29.1496595 36.4715319,29.2727273 36.3256265,29.2727273 Z" id="Shape" fill="#C5C5C5" fill-rule="nonzero"></path>
        </g>
    </g>
</svg>