<?xml version="1.0" encoding="UTF-8"?>
<svg width="51px" height="44px" viewBox="0 0 51 44" version="1.1" xmlns="http://www.w3.org/2000/svg" xmlns:xlink="http://www.w3.org/1999/xlink">
    <!-- Generator: Sketch 52.5 (67469) - http://www.bohemiancoding.com/sketch -->
    <title>icon -kefu</title>
    <desc>Created with Sketch.</desc>
    <g id="新用户指引_移动" stroke="none" stroke-width="1" fill="none" fill-rule="evenodd">
        <g id="07-弹窗-copy" transform="translate(-154.000000, -872.000000)" fill-rule="nonzero">
            <g id="icon--kefu" transform="translate(151.000000, 866.000000)">
                <path d="M40.3112857,36.7424738 C39.4376264,36.5281307 38.7894737,35.7397574 38.7894737,34.8 L38.7894737,25.6 C38.7894737,24.4954305 39.6849042,23.6 40.7894737,23.6 L41.328493,23.6 C40.3708459,17.1270903 34.7918018,12.16 28.0526316,12.16 C21.0111091,12.16 15.2361458,17.5827845 14.6760951,24.48 L15.3157895,24.48 C16.420359,24.48 17.3157895,25.3754305 17.3157895,26.48 L17.3157895,35.68 C17.3157895,36.7845695 16.420359,37.68 15.3157895,37.68 L9.6,37.68 C5.95492065,37.68 3,34.7250793 3,31.08 C3,27.8520916 5.31725729,25.1654076 8.3790019,24.5927181 C8.71873192,14.2666901 17.1966031,6 27.6052632,6 C37.6781389,6 45.9427911,13.7419249 46.7734452,23.6 L47.4,23.6 C51.0450793,23.6 54,26.5549207 54,30.2 C54,33.8450793 51.0450793,36.8 47.4,36.8 L45.2881852,36.8 C43.3248755,43.4149895 37.1995927,48.24 29.9473684,48.24 L28.9473684,48.24 L28.9473684,44.6185288 L29.0386894,44.6185288 C34.2171317,44.6185288 38.6294555,41.3383854 40.3112857,36.7424738 Z M28.8884211,42.96 L32.5852632,42.96 C34.5293055,42.96 36.1052632,44.5359577 36.1052632,46.48 L36.1052632,46.48 C36.1052632,48.4240423 34.5293055,50 32.5852632,50 L28.8884211,50 C26.9443787,50 25.3684211,48.4240423 25.3684211,46.48 L25.3684211,46.48 C25.3684211,44.5359577 26.9443787,42.96 28.8884211,42.96 Z" id="Combined-Shape" fill="#A6D4FF"></path>
                <rect id="Rectangle" x="0" y="0" width="56" height="56"></rect>
            </g>
        </g>
    </g>
</svg>