<?xml version="1.0" encoding="UTF-8"?>
<svg width="52px" height="45px" viewBox="0 0 52 45" version="1.1" xmlns="http://www.w3.org/2000/svg" xmlns:xlink="http://www.w3.org/1999/xlink">
    <!-- Generator: Sketch 52.5 (67469) - http://www.bohemiancoding.com/sketch -->
    <title>icon -moban</title>
    <desc>Created with Sketch.</desc>
    <g id="新用户指引_移动" stroke="none" stroke-width="1" fill="none" fill-rule="evenodd">
        <g id="07-弹窗-copy" transform="translate(-157.000000, -749.000000)" fill-rule="nonzero">
            <g id="icon--moban" transform="translate(155.000000, 743.000000)">
                <path d="M5,6 L21,6 C22.6568542,6 24,7.34314575 24,9 L24,31 C24,32.6568542 22.6568542,34 21,34 L5,34 C3.34314575,34 2,32.6568542 2,31 L2,9 C2,7.34314575 3.34314575,6 5,6 Z M35,23 L51,23 C52.6568542,23 54,24.3431458 54,26 L54,48 C54,49.6568542 52.6568542,51 51,51 L35,51 C33.3431458,51 32,49.6568542 32,48 L32,26 C32,24.3431458 33.3431458,23 35,23 Z M34.1290323,16 C32.9532002,16 32,15.1605339 32,14.125 L32,7.875 C32,6.83946609 32.9532002,6 34.1290323,6 L51.8709677,6 C53.0467998,6 54,6.83946609 54,7.875 L54,14.125 C54,15.1605339 53.0467998,16 51.8709677,16 L34.1290323,16 Z M4.12903226,51 C2.95320021,51 2,50.1605339 2,49.125 L2,42.875 C2,41.8394661 2.95320021,41 4.12903226,41 L21.8709677,41 C23.0467998,41 24,41.8394661 24,42.875 L24,49.125 C24,50.1605339 23.0467998,51 21.8709677,51 L4.12903226,51 Z" id="Combined-Shape" fill="#A6D4FF"></path>
                <rect id="Rectangle" x="0" y="0" width="56" height="56"></rect>
            </g>
        </g>
    </g>
</svg>