<?xml version="1.0" encoding="UTF-8"?>
<svg width="268px" height="160px" viewBox="0 0 268 160" version="1.1" xmlns="http://www.w3.org/2000/svg" xmlns:xlink="http://www.w3.org/1999/xlink">
    <!-- Generator: Sketch 52.5 (67469) - http://www.bohemiancoding.com/sketch -->
    <title>Group 23</title>
    <desc>Created with Sketch.</desc>
    <defs>
        <linearGradient x1="100%" y1="5.61642888%" x2="0%" y2="100%" id="linearGradient-1">
            <stop stop-color="#FFFFFF" offset="0%"></stop>
            <stop stop-color="#BFE2FF" offset="100%"></stop>
        </linearGradient>
        <linearGradient x1="100%" y1="4.52392614%" x2="9.69453106%" y2="100%" id="linearGradient-2">
            <stop stop-color="#F3FAFF" offset="0%"></stop>
            <stop stop-color="#CBE8FF" offset="100%"></stop>
        </linearGradient>
        <linearGradient x1="50%" y1="0%" x2="50%" y2="129.954597%" id="linearGradient-3">
            <stop stop-color="#E7F5FF" offset="0%"></stop>
            <stop stop-color="#CAE8FF" offset="100%"></stop>
        </linearGradient>
    </defs>
    <g id="新用户指引_移动" stroke="none" stroke-width="1" fill="none" fill-rule="evenodd">
        <g id="08-表单录入弹窗" transform="translate(-252.000000, -375.000000)" fill-rule="nonzero">
            <g id="Group-23" transform="translate(252.000000, 375.000000)">
                <polygon id="Rectangle" fill="#1890FF" points="109.955242 109 147.044758 109 154 160 103 160"></polygon>
                <rect id="Rectangle" fill="#5EB2FF" x="95" y="151" width="65" height="9" rx="2"></rect>
                <rect id="Rectangle" fill="#5EB2FF" x="28" y="0" width="197" height="132" rx="2"></rect>
                <rect id="Rectangle" fill="url(#linearGradient-1)" x="40" y="11" width="174" height="102" rx="2"></rect>
                <rect id="Rectangle-Copy-4" fill-opacity="0.5" fill="#5EB2FF" x="109" y="30" width="78" height="32"></rect>
                <rect id="Rectangle-Copy-15" fill-opacity="0.1" fill="#0060B7" x="28" y="66" width="33" height="66" rx="2"></rect>
                <rect id="Rectangle-Copy-17" fill-opacity="0.5" fill="#5EB2FF" x="70" y="30" width="28" height="26"></rect>
                <rect id="Rectangle-Copy-18" fill-opacity="0.5" fill="#5EB2FF" x="70" y="63" width="28" height="11"></rect>
                <rect id="Rectangle-Copy-10" fill-opacity="0.2" fill="#5EB2FF" x="109" y="69" width="78" height="9"></rect>
                <rect id="Rectangle-Copy-11" fill-opacity="0.5" fill="#1A8DF7" x="109" y="88" width="78" height="9"></rect>
                <g id="phone" transform="translate(0.000000, 74.000000)">
                    <g id="手机">
                        <rect id="Rectangle-Copy-15" fill="#5EB2FF" x="0" y="0" width="52" height="86" rx="2"></rect>
                        <rect id="Rectangle-Copy-16" fill="url(#linearGradient-2)" x="6" y="6" width="40" height="72" rx="2"></rect>
                    </g>
                    <rect id="Rectangle-Copy-4" fill-opacity="0.5" fill="#5EB2FF" x="13" y="17" width="28" height="18"></rect>
                    <rect id="Rectangle-Copy-10" fill-opacity="0.2" fill="#5EB2FF" x="13" y="41" width="28" height="6"></rect>
                    <rect id="Rectangle-Copy-11" fill-opacity="0.5" fill="#1A8DF7" x="13" y="52" width="28" height="6"></rect>
                </g>
                <path d="M199.258296,101.996179 C195.228023,101.86858 192,98.5612624 192,94.5 C192,92.0462733 193.17833,89.8677602 195,88.4994507 L195,72.9825149 C195,66.8802874 199.946833,61.9334545 206.04906,61.9334545 L203.503624,58 L218.088863,58 L229,58 C240.045695,58 249,66.954305 249,78 L249,87.8045179 C251.373176,89.0411174 253,91.5750196 253,94.5 C253,98.6325185 249.752685,101.984403 245.741141,101.999946 C244.535727,110.072684 239.224423,116.803834 232,120.000624 L232,123.138775 C248.266378,124.651175 261,138.338539 261,155 L261,160 L184,160 L184,155 C184,138.681529 196.214754,125.215967 212,123.247575 L212,119.529554 C205.287071,116.171286 200.406354,109.693345 199.258296,101.996179 Z" id="Combined-Shape" fill="#006ACC" opacity="0.123697917"></path>
                <g id="people" transform="translate(193.000000, 58.000000)">
                    <path d="M32,64 L43,64 C60.673112,64 75,78.326888 75,96 L75,102 L0,102 L0,96 C-2.164332e-15,78.326888 14.326888,64 32,64 Z" id="Rectangle" fill="#1890FF"></path>
                    <path d="M28,55 L48,55 L48,66 C48,71.5228475 43.5228475,76 38,76 L38,76 C32.4771525,76 28,71.5228475 28,66 L28,55 Z" id="Rectangle" fill="#DCF0FF"></path>
                    <path d="M21.8444482,3.9334545 L19.3461498,2.98427949e-13 L33.6612911,2.87342741e-13 L44,3.55271368e-15 C55.045695,-9.65818268e-14 64,8.954305 64,20 L64,42 L11,42 L11,14.7779027 C11,8.78867935 15.8552248,3.9334545 21.8444482,3.9334545 Z" id="Rectangle" fill="#5EB2FF"></path>
                    <g id="Group-21" transform="translate(9.000000, 30.000000)" fill="url(#linearGradient-3)">
                        <path d="M7,0 L7.63529412,0 L7.63529412,14 L7,14 C3.13400675,14 4.73447626e-16,10.8659932 0,7 L0,7 C-4.73447626e-16,3.13400675 3.13400675,7.10171439e-16 7,0 Z" id="Rectangle"></path>
                        <path d="M51.9520362,0 C55.8445191,0 59,3.13400675 59,7 C59,10.8659932 55.8445191,14 51.9520362,14 L51.3647059,14 L51.3647059,0 L51.9520362,0 Z" id="Rectangle-Copy-14"></path>
                    </g>
                    <path d="M29,13 L47,13 C54.7319865,13 61,19.2680135 61,27 L61,40 C61,52.7025492 50.7025492,63 38,63 L38,63 C25.2974508,63 15,52.7025492 15,40 L15,27 C15,19.2680135 21.2680135,13 29,13 Z" id="Rectangle" fill="#EBF6FE"></path>
                    <ellipse id="Oval" fill="#5EB2FF" cx="38" cy="20.5" rx="24" ry="8.5"></ellipse>
                    <rect id="Rectangle" fill="#5EB2FF" x="15" y="13" width="46" height="9"></rect>
                    <g id="Group-20" transform="translate(15.000000, 88.000000)" stroke="#006BCE">
                        <path d="M0.511363636,0 L0.511363636,14" id="Path-3"></path>
                        <path d="M44.4886364,0 L44.4886364,14" id="Path-3-Copy"></path>
                    </g>
                </g>
            </g>
        </g>
    </g>
</svg>