<?xml version="1.0" encoding="UTF-8"?>
<svg width="308px" height="188px" viewBox="0 0 308 188" version="1.1" xmlns="http://www.w3.org/2000/svg" xmlns:xlink="http://www.w3.org/1999/xlink">
    <!-- Generator: Sketch 52.5 (67469) - http://www.bohemiancoding.com/sketch -->
    <title>Group 27</title>
    <desc>Created with Sketch.</desc>
    <defs>
        <linearGradient x1="86.7787185%" y1="0%" x2="11.9509824%" y2="100%" id="linearGradient-1">
            <stop stop-color="#94D7FF" offset="0%"></stop>
            <stop stop-color="#5EB2FF" offset="100%"></stop>
        </linearGradient>
        <linearGradient x1="100%" y1="0%" x2="-28.9302781%" y2="100%" id="linearGradient-2">
            <stop stop-color="#CBEAFF" offset="0%"></stop>
            <stop stop-color="#9CD0FF" offset="100%"></stop>
        </linearGradient>
        <linearGradient x1="100%" y1="5.61642888%" x2="0%" y2="100%" id="linearGradient-3">
            <stop stop-color="#FFFFFF" offset="0%"></stop>
            <stop stop-color="#BFE2FF" offset="100%"></stop>
        </linearGradient>
        <linearGradient x1="70.0307688%" y1="22.0072337%" x2="15.890311%" y2="98.1733974%" id="linearGradient-4">
            <stop stop-color="#DBEDFF" offset="0%"></stop>
            <stop stop-color="#66B6FF" offset="100%"></stop>
        </linearGradient>
        <linearGradient x1="100%" y1="4.52392614%" x2="9.69453106%" y2="100%" id="linearGradient-5">
            <stop stop-color="#F3FAFF" offset="0%"></stop>
            <stop stop-color="#CBE8FF" offset="100%"></stop>
        </linearGradient>
    </defs>
    <g id="新用户指引_移动" stroke="none" stroke-width="1" fill="none" fill-rule="evenodd">
        <g id="07-弹窗-copy-4" transform="translate(-220.000000, -348.000000)" fill-rule="nonzero">
            <g id="Group-27" transform="translate(220.000000, 348.000000)">
                <g id="Group-25" transform="translate(209.000000, 65.000000)">
                    <path d="M13.7368421,-4.33333333 L13.7368421,54 L9,54 L9,-4.33333333 L9,-9 L54,-9 L54,-4.33333333 L13.7368421,-4.33333333 Z" id="Combined-Shape-Copy-2" fill="#9CD0FF" transform="translate(31.500000, 22.500000) rotate(90.000000) translate(-31.500000, -22.500000) "></path>
                    <g id="Group-17" transform="translate(26.000000, 39.000000)">
                        <path d="M2,0 L71,-2.22044605e-16 C72.1045695,-4.2495073e-16 73,0.8954305 73,2 L73,22.5 C73,23.6045695 72.1045695,24.5 71,24.5 L2,24.5 C0.8954305,24.5 1.3527075e-16,23.6045695 0,22.5 L0,2 C-1.3527075e-16,0.8954305 0.8954305,2.02906125e-16 2,0 Z M2,28 L71,28 C72.1045695,28 73,28.8954305 73,30 L73,52.8333333 C73,53.9379028 72.1045695,54.8333333 71,54.8333333 L2,54.8333333 C0.8954305,54.8333333 1.3527075e-16,53.9379028 0,52.8333333 L0,30 C-1.3527075e-16,28.8954305 0.8954305,28 2,28 Z M2,58.3333333 L71,58.3333333 C72.1045695,58.3333333 73,59.2287638 73,60.3333333 L73,82 C73,83.1045695 72.1045695,84 71,84 L2,84 C0.8954305,84 1.3527075e-16,83.1045695 0,82 L0,60.3333333 C-1.3527075e-16,59.2287638 0.8954305,58.3333333 2,58.3333333 Z" id="Combined-Shape" fill="url(#linearGradient-1)"></path>
                        <ellipse id="Oval-Copy-6" fill="#CCE7FF" cx="49.4516129" cy="12.8333333" rx="3.53225806" ry="3.5"></ellipse>
                        <ellipse id="Oval-Copy-9" fill="#CCE7FF" cx="49.4516129" cy="42" rx="3.53225806" ry="3.5"></ellipse>
                        <ellipse id="Oval-Copy-10" fill="#CCE7FF" cx="49.4516129" cy="71.1666667" rx="3.53225806" ry="3.5"></ellipse>
                        <ellipse id="Oval-Copy-11" fill="#CCE7FF" cx="61.2258065" cy="12.8333333" rx="3.53225806" ry="3.5"></ellipse>
                        <ellipse id="Oval-Copy-12" fill="#CCE7FF" cx="61.2258065" cy="42" rx="3.53225806" ry="3.5"></ellipse>
                        <ellipse id="Oval-Copy-13" fill="#CCE7FF" cx="61.2258065" cy="71.1666667" rx="3.53225806" ry="3.5"></ellipse>
                        <path d="M5.88709677,7 L10.5967742,7 L10.5967742,18.6666667 L5.88709677,18.6666667 L5.88709677,7 Z M14.1290323,7 L18.8387097,7 L18.8387097,18.6666667 L14.1290323,18.6666667 L14.1290323,7 Z M21.1935484,7 L25.9032258,7 L25.9032258,18.6666667 L21.1935484,18.6666667 L21.1935484,7 Z" id="Combined-Shape" fill="url(#linearGradient-2)"></path>
                        <path d="M5.88709677,36.1666667 L10.5967742,36.1666667 L10.5967742,47.8333333 L5.88709677,47.8333333 L5.88709677,36.1666667 Z M14.1290323,36.1666667 L18.8387097,36.1666667 L18.8387097,47.8333333 L14.1290323,47.8333333 L14.1290323,36.1666667 Z M21.1935484,36.1666667 L25.9032258,36.1666667 L25.9032258,47.8333333 L21.1935484,47.8333333 L21.1935484,36.1666667 Z" id="Combined-Shape" fill="url(#linearGradient-2)"></path>
                        <path d="M5.88709677,65.3333333 L10.5967742,65.3333333 L10.5967742,77 L5.88709677,77 L5.88709677,65.3333333 Z M14.1290323,65.3333333 L18.8387097,65.3333333 L18.8387097,77 L14.1290323,77 L14.1290323,65.3333333 Z M21.1935484,65.3333333 L25.9032258,65.3333333 L25.9032258,77 L21.1935484,77 L21.1935484,65.3333333 Z" id="Combined-Shape" fill="url(#linearGradient-2)"></path>
                    </g>
                </g>
                <g id="Group-24" transform="translate(32.000000, 28.000000)">
                    <polygon id="Rectangle-Copy-8" fill="#1890FF" points="81.9552423 109 119.044758 109 126 160 75 160"></polygon>
                    <rect id="Rectangle-Copy-24" fill="#5EB2FF" x="67" y="151" width="65" height="9" rx="2"></rect>
                    <rect id="Rectangle-Copy-25" fill="#5EB2FF" x="0" y="0" width="197" height="132" rx="5"></rect>
                    <rect id="Rectangle-Copy-26" fill="url(#linearGradient-3)" x="12" y="11" width="174" height="102" rx="5"></rect>
                    <rect id="Rectangle-Copy-28" fill-opacity="0.5" fill="#5EB2FF" x="47" y="53" width="34" height="26"></rect>
                    <rect id="Rectangle-Copy-30" fill-opacity="0.5" fill="#5EB2FF" opacity="0.484026228" x="89" y="53" width="34" height="26"></rect>
                    <rect id="Rectangle-Copy-32" fill-opacity="0.7" fill="#5EB2FF" x="130" y="53" width="34" height="26"></rect>
                    <rect id="Rectangle-Copy-29" fill-opacity="0.5" fill="#5EB2FF" x="47" y="86" width="34" height="11"></rect>
                    <rect id="Rectangle-Copy-31" fill-opacity="0.5" fill="#5EB2FF" x="89" y="86" width="34" height="11"></rect>
                    <rect id="Rectangle-Copy-33" fill-opacity="0.5" fill="#5EB2FF" x="130" y="86" width="34" height="11"></rect>
                </g>
                <path d="M108,63 C95.2974508,63 85,52.7025492 85,40 C85,27.2974508 95.2974508,17 108,17 C108.596386,17 109.18747,17.0226988 109.772436,17.0672796 C112.388668,7.24006719 121.34883,0 132,0 C142.627188,0 151.570973,7.20749984 154.209795,17.000937 C166.815737,17.1135737 177,27.3674558 177,40 C177,52.7025492 166.702549,63 154,63 L108,63 Z" id="Combined-Shape-Copy-3" fill="url(#linearGradient-4)"></path>
                <g id="Group-26" transform="translate(116.000000, 20.000000)" stroke="#FFFFFF" stroke-linecap="round" stroke-width="7">
                    <polyline id="Path-Copy-4" stroke-linejoin="round" points="0 14 15.5 0 15.5 0 31 14"></polyline>
                    <path d="M15.5,31 L15.5,0" id="Path-2-Copy"></path>
                </g>
                <rect id="Rectangle-Copy-23" fill-opacity="0.1" fill="#0060B7" x="32" y="97" width="24" height="63" rx="2"></rect>
                <g id="Group-19-Copy" transform="translate(0.000000, 102.000000)">
                    <g id="手机">
                        <rect id="Rectangle-Copy-15" fill="#5EB2FF" x="0" y="0" width="52" height="86" rx="2"></rect>
                        <rect id="Rectangle-Copy-16" fill="url(#linearGradient-5)" x="6" y="6" width="40" height="72" rx="2"></rect>
                    </g>
                    <g id="Rectangle-Copy-34" transform="translate(12.000000, 17.000000)" fill="#5EB2FF" fill-opacity="0.64">
                        <rect id="Rectangle-Copy-4" x="0" y="0" width="28" height="18"></rect>
                    </g>
                    <rect id="Rectangle-Copy-27" fill-opacity="0.27" fill="#5EB2FF" x="12" y="40" width="16" height="10"></rect>
                    <rect id="Rectangle-Copy-11" fill-opacity="0.73" fill="#1A8DF7" x="12" y="56" width="28" height="6"></rect>
                </g>
            </g>
        </g>
    </g>
</svg>