<?xml version="1.0" encoding="UTF-8"?>
<svg width="46px" height="46px" viewBox="0 0 46 46" version="1.1" xmlns="http://www.w3.org/2000/svg" xmlns:xlink="http://www.w3.org/1999/xlink">
    <!-- Generator: Sketch 52.6 (67491) - http://www.bohemiancoding.com/sketch -->
    <title>系统icon/附件 copy 4</title>
    <desc>Created with Sketch.</desc>
    <g id="系统icon/附件-copy-4" stroke="none" stroke-width="1" fill="none" fill-rule="evenodd">
        <g id="location" transform="translate(2.090909, 3.136364)">
            <rect id="Rectangle" fill="#000000" opacity="0" x="0" y="0" width="41.8181818" height="41.8181818"></rect>
            <path d="M42.7737926,12.2064986 C42.0060369,10.4341264 40.9074929,8.84552557 39.510831,7.48153409 C38.114169,6.11754261 36.4928977,5.05166903 34.6837713,4.30433239 C32.8133878,3.52840909 30.8286577,3.13636364 28.7826705,3.13636364 C26.7366832,3.13636364 24.7519531,3.52840909 22.8815696,4.30024858 C21.0724432,5.04758523 19.4511719,6.11754261 18.0545099,7.47745028 C16.657848,8.84144176 15.559304,10.4341264 14.7915483,12.2024148 C13.995206,14.0401278 13.5909091,15.9921875 13.5909091,18.0014205 C13.5909091,20.8845881 14.2810724,23.7555043 15.6368963,26.5243253 C16.7272727,28.75 18.2505327,30.9185014 20.1699219,32.9808239 C23.4492188,36.5010653 26.8877841,38.6532315 27.8638139,39.2290483 C28.1455966,39.3964844 28.4641335,39.4781605 28.7785866,39.4781605 C29.0971236,39.4781605 29.4115767,39.3964844 29.6933594,39.2290483 C30.6693892,38.6532315 34.1079545,36.5010653 37.3872514,32.9808239 C39.3066406,30.9225852 40.8299006,28.75 41.920277,26.5243253 C43.2842685,23.7595881 43.9744318,20.8927557 43.9744318,18.0055043 C43.9744318,15.9962713 43.5701349,14.0442116 42.7737926,12.2064986 Z M28.7826705,36.3458807 C26.0914418,34.6347656 16.53125,27.8597301 16.53125,18.0055043 C16.53125,14.8242188 17.8013139,11.8348722 20.1086648,9.5806108 C22.4241832,7.32226563 25.5033736,6.07670455 28.7826705,6.07670455 C32.0619673,6.07670455 35.1411577,7.32226563 37.4566761,9.5846946 C39.764027,11.8348722 41.0340909,14.8242188 41.0340909,18.0055043 C41.0340909,27.8597301 31.4738991,34.6347656 28.7826705,36.3458807 Z M28.7826705,11.140625 C24.8132102,11.140625 21.5951705,14.3586648 21.5951705,18.328125 C21.5951705,22.2975852 24.8132102,25.515625 28.7826705,25.515625 C32.7521307,25.515625 35.9701705,22.2975852 35.9701705,18.328125 C35.9701705,14.3586648 32.7521307,11.140625 28.7826705,11.140625 Z M32.0170455,21.5625 C31.1512784,22.4241832 30.0037287,22.9019886 28.7826705,22.9019886 C27.5616122,22.9019886 26.4140625,22.4241832 25.5482955,21.5625 C24.6866122,20.696733 24.2088068,19.5491832 24.2088068,18.328125 C24.2088068,17.1070668 24.6866122,15.959517 25.5482955,15.09375 C26.4140625,14.227983 27.5616122,13.7542614 28.7826705,13.7542614 C30.0037287,13.7542614 31.1512784,14.227983 32.0170455,15.09375 C32.8828125,15.959517 33.3565341,17.1070668 33.3565341,18.328125 C33.3565341,19.5491832 32.8828125,20.696733 32.0170455,21.5625 Z" id="Shape" fill="#178FFE" fill-rule="nonzero"></path>
        </g>
    </g>
</svg>