<?xml version="1.0" encoding="UTF-8"?>
<svg width="64px" height="64px" viewBox="0 0 64 64" version="1.1" xmlns="http://www.w3.org/2000/svg" xmlns:xlink="http://www.w3.org/1999/xlink">
    <!-- Generator: Sketch 58 (84663) - https://sketch.com -->
    <title>角标</title>
    <desc>Created with Sketch.</desc>
    <g id="角标" stroke="none" stroke-width="1" fill="none" fill-rule="evenodd">
        <rect id="矩形" fill="#D8D8D8" opacity="0" x="0" y="0" width="64" height="64"></rect>
        <path d="M64,34 L64,64 L44,64 L44,63.999 L34,64 C39.5228475,63.9999264 44,60.4182044 44,55.9999264 L44.037933,55.9994301 C44.523722,49.6171464 49.6180142,44.523163 56.0004329,44.0378567 L56,44 C60.3393802,44 63.8718146,39.6813181 63.9965892,34.2948469 L64,34 Z M54,48 C50.6862915,48 48,50.6862915 48,54 C48,57.3137085 50.6862915,60 54,60 C57.3137085,60 60,57.3137085 60,54 C60,50.6862915 57.3137085,48 54,48 Z M54,50 L55.3523106,52.1387041 L57.8042261,52.763932 L56.1880845,54.7109518 L56.351141,57.236068 L54,56.3006882 L51.648859,57.236068 L51.8119155,54.7109518 L50.1957739,52.763932 L52.6476894,52.1387041 L54,50 Z" id="形状结合" fill="#FFFFFF" opacity="0.9"></path>
    </g>
</svg>