<?xml version="1.0" encoding="UTF-8"?>
<svg width="59px" height="24px" viewBox="0 0 59 24" version="1.1" xmlns="http://www.w3.org/2000/svg" xmlns:xlink="http://www.w3.org/1999/xlink">
    <!-- Generator: Sketch 59.1 (86144) - https://sketch.com -->
    <title>logo</title>
    <desc>Created with Sketch.</desc>
    <defs>
        <polygon id="path-1" points="0 23.7272727 57.7487583 23.7272727 57.7487583 0.0515454545 0 0.0515454545"></polygon>
    </defs>
    <g id="迭代33" stroke="none" stroke-width="1" fill="none" fill-rule="evenodd">
        <g id="分享表单_新风格" transform="translate(-821.000000, -1075.000000)">
            <g id="Group-3" transform="translate(16.000000, 88.000000)">
                <g id="Group-2-Copy" transform="translate(104.000000, 56.000000)">
                    <g id="Group-25" transform="translate(617.000000, 931.000000)">
                        <g id="Group-16" transform="translate(85.000000, 0.000000)">
                            <rect id="Rectangle" x="2.27373675e-13" y="0" width="58" height="24"></rect>
                            <g id="logo" transform="translate(-0.000000, 0.000000)">
                                <g id="Group-20">
                                    <polygon id="Fill-1" fill="#012332" points="31.5223128 10.4345182 40.9136398 10.4345182 40.9136398 8.61488182 31.5223128 8.61488182"></polygon>
                                    <polygon id="Fill-2" fill="#012332" points="30.8551754 12.8053364 41.5805024 12.8053364 41.5805024 10.9859727 30.8551754 10.9859727"></polygon>
                                    <g id="Group-19" transform="translate(0.000000, 0.221155)">
                                        <path d="M41.5804474,11.7019909 L41.5804474,15.3131727 C41.5804474,15.6990818 41.7470256,16.0577182 41.9974427,16.3059 C42.24731,16.5816273 42.6085043,16.7190818 42.9974616,16.7190818 L42.9974616,18.5387182 C42.1084948,18.5387182 41.3025422,18.1803545 40.6914806,17.6013545 C40.1079071,17.0226273 39.7467128,16.1957182 39.7467128,15.3131727 L39.7467128,11.7019909 L41.5804474,11.7019909 Z" id="Fill-3" fill="#012332"></path>
                                        <path d="M33.3559924,13.2182455 L33.3559924,16.5815182 C33.3559924,17.0776091 33.2171773,17.5461545 33.0225611,17.9598818 C32.8004569,18.3733364 32.4670256,18.7317 32.0780682,19.0074273 L31.0222483,17.5461545 C31.1610635,17.4359727 31.3001536,17.2704273 31.3831678,17.1051545 C31.4667318,16.9674273 31.5222483,16.7743364 31.5222483,16.5815182 L31.5222483,13.2182455 L33.3559924,13.2182455 Z" id="Fill-5" fill="#012332"></path>
                                        <path d="M41.7750635,7.84251818 L32.3001725,7.84251818 C31.800163,7.84251818 31.3276417,7.73233636 30.9109213,7.5117 C30.4942009,7.29133636 30.1327318,6.96051818 29.8551014,6.57460909 L31.3276417,5.52679091 C31.4386938,5.69206364 31.6055469,5.80251818 31.7721251,5.91297273 C31.9112152,5.99560909 32.1055564,6.02315455 32.3001725,6.02315455 L41.7750635,6.02315455 L41.7750635,7.84251818 Z" id="Fill-7" fill="#012332"></path>
                                        <mask id="mask-2" fill="white">
                                            <use xlink:href="#path-1"></use>
                                        </mask>
                                        <g id="Clip-10"></g>
                                        <polygon id="Fill-9" fill="#012332" mask="url(#mask-2)" points="34.3285782 17.8494545 36.1623128 17.8494545 36.1623128 13.2182727 34.3285782 13.2182727"></polygon>
                                        <polygon id="Fill-11" fill="#012332" mask="url(#mask-2)" points="37.1626066 17.8494545 38.9963412 17.8494545 38.9963412 13.2182727 37.1626066 13.2182727"></polygon>
                                        <polygon id="Fill-12" fill="#012332" mask="url(#mask-2)" points="47.6350427 7.84254545 56.0538389 7.84254545 56.0538389 6.02318182 47.6350427 6.02318182"></polygon>
                                        <polygon id="Fill-13" fill="#012332" mask="url(#mask-2)" points="46.1899905 11.3986364 57.4708531 11.3986364 57.4708531 9.57927273 46.1899905 9.57927273"></polygon>
                                        <path d="M50.0244502,10.5716727 L48.4130948,16.4713091 C48.3017678,16.9398545 48.0516256,17.3533091 47.7462322,17.7116727 C47.4128009,18.0427636 46.9958057,18.3182182 46.5513223,18.4837636 L45.9122227,16.7743091 C46.1068389,16.7192182 46.2734171,16.6090364 46.3847441,16.4713091 C46.5235592,16.3611273 46.6068483,16.1955818 46.6626493,16.0024909 L48.2462417,10.1031273 L50.0244502,10.5716727 Z" id="Fill-14" fill="#012332" mask="url(#mask-2)"></path>
                                        <path d="M55.8871507,11.7845455 L56.9984967,16.0025455 C57.0540227,16.1956364 57.1653498,16.3333636 57.2766768,16.4713636 C57.4154919,16.6088182 57.5543071,16.7192727 57.7486483,16.7743636 L57.1095488,18.4835455 C56.6650654,18.3182727 56.248345,18.0700909 55.9426768,17.7114545 C55.6092455,17.3533636 55.3593782,16.9396364 55.2483261,16.4713636 L54.1089422,12.2533636 L55.8871507,11.7845455 Z" id="Fill-15" fill="#012332" mask="url(#mask-2)"></path>
                                        <polygon id="Fill-16" fill="#012332" mask="url(#mask-2)" points="47.6350427 17.0776364 56.0538389 17.0776364 56.0538389 15.258 47.6350427 15.258"></polygon>
                                        <path d="M21.4237431,2.4969 C21.4237431,3.15908182 21.1543592,3.75771818 20.704928,4.20335455 C20.2684161,4.63644545 19.6653261,4.90371818 18.9976389,4.90371818 L4.85196114,4.90371818 C4.18454882,4.90371818 3.58118389,4.63644545 3.14494692,4.20335455 C2.70843507,3.75771818 2.43905118,3.15908182 2.43905118,2.4969 L4.22303223,2.4969 C4.22303223,2.67499091 4.2873545,2.82799091 4.40280474,2.94253636 C4.51852986,3.05735455 4.68510806,3.13371818 4.85196114,3.13371818 L18.9976389,3.13371818 C19.1774114,3.13371818 19.3316199,3.05735455 19.4470701,2.94253636 C19.5625204,2.82799091 19.6394872,2.67499091 19.6394872,2.4969 L21.4237431,2.4969 Z M5.39127867,8.27871818 L18.4715156,8.27871818 L18.4715156,6.52126364 L5.39127867,6.52126364 L5.39127867,8.27871818 Z M2.74881517e-05,0.0516272727 L23.8627668,0.0516272727 L23.8627668,12.4686273 C22.1810417,11.7047182 20.4226246,11.1060818 18.5998853,10.6729909 C16.4560844,10.1635364 14.222672,9.89626364 11.9249374,9.89626364 C9.62720284,9.89626364 7.39351564,10.1635364 5.24998957,10.6729909 C3.42725024,11.1060818 1.66855829,11.7047182 2.74881517e-05,12.4686273 L2.74881517e-05,0.0516272727 Z" id="Fill-17" fill="#00B9EF" mask="url(#mask-2)"></path>
                                        <path d="M11.0392417,21.282 L12.8234976,21.282 L12.8234976,14.0735455 L11.0392417,14.0735455 L11.0392417,21.282 Z M5.39125118,21.282 L7.16258768,21.282 L7.16258768,14.0735455 L5.39125118,14.0735455 L5.39125118,21.282 Z M16.6872322,21.282 L18.4714882,21.282 L18.4714882,14.0735455 L16.6872322,14.0735455 L16.6872322,21.282 Z M23.8627393,14.4174545 L23.8627393,23.7272727 L0,23.7272727 L0,14.4174545 C1.78425592,13.5387273 3.68396209,12.8637273 5.66090995,12.3927273 C7.67606635,11.9211818 9.76846445,11.6664545 11.92491,11.6664545 C14.0813555,11.6664545 16.186673,11.9211818 18.1891848,12.3927273 C20.1787773,12.8637273 22.0784834,13.5387273 23.8627393,14.4174545 L23.8627393,14.4174545 Z" id="Fill-18" fill="#012332" mask="url(#mask-2)"></path>
                                    </g>
                                </g>
                            </g>
                        </g>
                    </g>
                </g>
            </g>
        </g>
    </g>
</svg>