<?xml version="1.0" encoding="UTF-8"?>
<svg width="49px" height="36px" viewBox="0 0 49 36" version="1.1" xmlns="http://www.w3.org/2000/svg" xmlns:xlink="http://www.w3.org/1999/xlink">
    <!-- Generator: Sketch 52.6 (67491) - http://www.bohemiancoding.com/sketch -->
    <title>folder-open-fill</title>
    <desc>Created with Sketch.</desc>
    <g id="移动端-定稿" stroke="none" stroke-width="1" fill="none" fill-rule="evenodd">
        <g id="08移动端-列表详情-copy" transform="translate(-31.000000, -407.000000)">
            <g id="Rectangle-Copy-3" transform="translate(1.000000, 370.000000)">
                <g id="folder-fill-copy" transform="translate(24.000000, 27.000000)">
                    <g id="folder-open-fill">
                        <rect id="Rectangle" fill="#000000" opacity="0" x="0" y="0" width="56" height="56"></rect>
                        <path d="M53.25,24.21875 L49.875,24.21875 L49.875,18.00625 C49.875,17.0382813 49.0929688,16.25625 48.125,16.25625 L28.3671875,16.25625 L21.9523437,10.1203125 C21.8703125,10.04375 21.7609375,10 21.6515625,10 L7.75,10 C6.78203125,10 6,10.7820312 6,11.75 L6,44.125 C6,45.0929687 6.78203125,45.875 7.75,45.875 L48.2507812,45.875 C48.9617187,45.875 49.6070312,45.4429688 49.875,44.78125 L54.8742187,26.625 C54.95625,26.4171875 55,26.1929687 55,25.96875 C55,25.0007812 54.2179687,24.21875 53.25,24.21875 Z M45.5083928,24.21875 L14.515625,24.21875 C13.8046875,24.21875 13.159375,24.6507813 12.8914062,25.3125 L9.9375,35.1125 L9.9375,13.9375 L20.2460938,13.9375 L26.7867188,20.19375 L45.5083928,20.19375 L45.5083928,24.21875 Z" id="Shape" fill="#C4CAD9" fill-rule="nonzero"></path>
                    </g>
                </g>
            </g>
        </g>
    </g>
</svg>