<?xml version="1.0" encoding="UTF-8"?>
<svg width="35px" height="33px" viewBox="0 0 35 33" version="1.1" xmlns="http://www.w3.org/2000/svg" xmlns:xlink="http://www.w3.org/1999/xlink">
    <!-- Generator: Sketch 48.2 (47327) - http://www.bohemiancoding.com/sketch -->
    <title>签名</title>
    <desc>Created with Sketch.</desc>
    <defs>
        <polygon id="path-1" points="0.00279975387 0.0384134957 33.1477326 0.0384134957 33.1477326 32.8124067 0.00279975387 32.8124067"></polygon>
    </defs>
    <g id="审批" stroke="none" stroke-width="1" fill="none" fill-rule="evenodd" transform="translate(-30.000000, -535.000000)">
        <g id="Group-4" transform="translate(0.000000, 471.000000)">
            <g id="Group-2" transform="translate(30.000000, 59.000000)">
                <g id="签名" transform="translate(0.000000, 5.000000)">
                    <polygon id="Fill-1" fill="#929292" points="23.6168989 2.91666667 29.8958333 9.19555832 28.5183275 10.5729167 22.2395833 4.29402501"></polygon>
                    <polygon id="Fill-2" fill="#929292" points="20.7003626 5.83333333 26.9791667 12.1121374 25.6017208 13.4895833 19.3229167 7.21077924"></polygon>
                    <g id="Group-6">
                        <mask id="mask-2" fill="white">
                            <use xlink:href="#path-1"></use>
                        </mask>
                        <g id="Clip-4"></g>
                        <polygon id="Fill-3" fill="#929292" mask="url(#mask-2)" points="5.99557958 20.6534384 12.1557847 26.8154205 10.8043902 28.1671742 4.6439984 22.005192"></polygon>
                        <path d="M0.95564932,32.8124067 C0.697745326,32.8124067 0.446047454,32.7079481 0.262850226,32.5148538 C0.0136721314,32.2523071 -0.0661675164,31.8716261 0.0570683163,31.5310389 C1.12974735,28.5668519 3.72441925,21.5727018 4.64385842,20.6534384 L23.6176504,1.674371 C24.6724577,0.619470128 26.0745277,0.0384134957 27.5660966,0.0384134957 C29.0578521,0.0384134957 30.4602488,0.619470128 31.5149161,1.674371 C33.6920047,3.85227151 33.6920047,7.39574147 31.5149161,9.57378201 L12.5411242,28.5528027 C11.5407721,29.5528605 4.30079524,31.8359197 1.23436482,32.7708659 C1.14267288,32.7989176 1.04883446,32.8124067 0.95564932,32.8124067 Z M6.00617198,21.9947835 C5.54957879,22.5585237 3.98890266,26.4170497 2.51903188,30.3701858 C6.60093303,29.0800898 10.6006147,27.6681721 11.2006487,27.1899404 L30.1633349,8.22202836 C31.5953157,6.78948035 31.5953157,4.45867265 30.1633349,3.02631134 C29.4696026,2.33258135 28.547457,1.95045341 27.5660966,1.95045341 C26.5850629,1.95045341 25.6625906,2.33258135 24.9690449,3.02631134 L6.00617198,21.9947835 Z" id="Fill-5" fill="#929292" mask="url(#mask-2)"></path>
                    </g>
                    <path d="M34.0423738,32.4479167 L15.1763762,32.4479167 C14.6474164,32.4479167 14.21875,32.0399066 14.21875,31.5364806 C14.21875,31.0330101 14.6474164,30.625 15.1763762,30.625 L34.0423738,30.625 C34.5711466,30.625 35,31.0330101 35,31.5364806 C35,32.0399066 34.5709595,32.4479167 34.0423738,32.4479167 Z" id="Fill-7" fill="#9B9B9B"></path>
                </g>
            </g>
        </g>
    </g>
</svg>