<?xml version="1.0" encoding="UTF-8"?>
<svg width="263px" height="55px" viewBox="0 0 263 55" version="1.1" xmlns="http://www.w3.org/2000/svg" xmlns:xlink="http://www.w3.org/1999/xlink">
    <!-- Generator: Sketch 52.4 (67378) - http://www.bohemiancoding.com/sketch -->
    <title>Group 11</title>
    <desc>Created with Sketch.</desc>
    <defs>
        <linearGradient x1="87.0826377%" y1="50%" x2="4.23259914%" y2="50%" id="linearGradient-1">
            <stop stop-color="#FFFFFF" stop-opacity="0" offset="0%"></stop>
            <stop stop-color="#FFFFFF" offset="100%"></stop>
        </linearGradient>
    </defs>
    <g id="新用户指引_移动" stroke="none" stroke-width="1" fill="none" fill-rule="evenodd">
        <g id="05安装_默认" transform="translate(-244.000000, -555.000000)" fill-rule="nonzero">
            <g id="Group-11" transform="translate(244.000000, 555.000000)">
                <g id="Group-10" transform="translate(115.000000, 11.000000)" fill="#FFFFFF" fill-opacity="0.67">
                    <circle id="Oval" cx="16" cy="16" r="16"></circle>
                    <circle id="Oval-Copy-2" cx="16" cy="16" r="10"></circle>
                </g>
                <g id="Group-12" fill="url(#linearGradient-1)">
                    <g id="Group-9">
                        <path d="M30.7461844,17.6596437 L111.849865,23.6365489 L111.849865,31.2728677 L30.7461844,37.2497729 L30.7461844,53.8503223 C30.7461844,54.4026071 30.2984691,54.8503223 29.7461844,54.8503223 C29.4918022,54.8503223 29.2469818,54.7533766 29.0615629,54.5792211 L0.958866203,28.1836395 C0.556306497,27.8055336 0.536482832,27.172679 0.914588807,26.7701193 C0.928882116,26.7549016 0.943648485,26.7401352 0.958866203,26.7258419 L29.0615629,0.330260282 C29.4641226,-0.0478456936 30.0969772,-0.0280220285 30.4750832,0.374537677 C30.6492387,0.559956535 30.7461844,0.804776946 30.7461844,1.05915911 L30.7461844,17.6596437 Z" id="Combined-Shape"></path>
                    </g>
                    <g id="Group-9-Copy" transform="translate(207.000000, 27.500000) scale(-1, 1) translate(-207.000000, -27.500000) translate(151.000000, 0.000000)">
                        <path d="M30.7461844,17.6596437 L111.849865,23.6365489 L111.849865,31.2728677 L30.7461844,37.2497729 L30.7461844,53.8503223 C30.7461844,54.4026071 30.2984691,54.8503223 29.7461844,54.8503223 C29.4918022,54.8503223 29.2469818,54.7533766 29.0615629,54.5792211 L0.958866203,28.1836395 C0.556306497,27.8055336 0.536482832,27.172679 0.914588807,26.7701193 C0.928882116,26.7549016 0.943648485,26.7401352 0.958866203,26.7258419 L29.0615629,0.330260282 C29.4641226,-0.0478456936 30.0969772,-0.0280220285 30.4750832,0.374537677 C30.6492387,0.559956535 30.7461844,0.804776946 30.7461844,1.05915911 L30.7461844,17.6596437 Z" id="Combined-Shape"></path>
                    </g>
                </g>
            </g>
        </g>
    </g>
</svg>