<?xml version="1.0" encoding="UTF-8"?>
<svg width="100px" height="104px" viewBox="0 0 100 104" version="1.1" xmlns="http://www.w3.org/2000/svg" xmlns:xlink="http://www.w3.org/1999/xlink">
    <!-- Generator: Sketch 52.4 (67378) - http://www.bohemiancoding.com/sketch -->
    <title>应用工厂</title>
    <desc>Created with Sketch.</desc>
    <defs>
        <ellipse id="path-1" cx="49.9018068" cy="51.8679828" rx="49.9018068" ry="51.8679828"></ellipse>
        <linearGradient x1="0%" y1="100%" x2="100%" y2="0%" id="linearGradient-3">
            <stop stop-color="#37ABFD" offset="0%"></stop>
            <stop stop-color="#69C1FF" offset="100%"></stop>
        </linearGradient>
        <linearGradient x1="94.8154303%" y1="6.774892%" x2="24.474895%" y2="92.1625662%" id="linearGradient-4">
            <stop stop-color="#FFFFFF" stop-opacity="0.671676857" offset="0%"></stop>
            <stop stop-color="#FFFFFF" offset="100%"></stop>
        </linearGradient>
    </defs>
    <g id="新用户指引_移动" stroke="none" stroke-width="1" fill="none" fill-rule="evenodd">
        <g id="04-安装完成-弹窗-copy" transform="translate(-197.000000, -886.000000)">
            <g id="Group-4" transform="translate(156.000000, 484.000000)">
                <g id="应用工厂" transform="translate(41.000000, 402.000000)">
                    <g id="Group-31-Copy">
                        <mask id="mask-2" fill="white">
                            <use xlink:href="#path-1"></use>
                        </mask>
                        <use id="Mask" fill="#EEF4F8" fill-rule="nonzero" xlink:href="#path-1"></use>
                        <g id="Group-31" mask="url(#mask-2)">
                            <g transform="translate(-15.789474, -12.315789)">
                                <g id="Group-14" stroke-width="1" fill="none" fill-rule="evenodd" transform="translate(0.131579, 0.575333)">
                                    <rect id="Rectangle" stroke="#FFFFFF" stroke-width="5" fill-opacity="0.63" fill="url(#linearGradient-3)" fill-rule="nonzero" x="-2.5" y="-1.95862576" width="136.72951" height="85.5515247" rx="2"></rect>
                                    <rect id="Rectangle-Copy-2" fill="#FFFFFF" fill-rule="nonzero" x="21.0526316" y="60.2105263" width="21.8119927" height="14.1632562" rx="2"></rect>
                                    <rect id="Rectangle-Copy-5" fill-opacity="0.63" fill="#FFFFFF" fill-rule="nonzero" x="87.5" y="33.5263158" width="21.8119927" height="14.1632562" rx="2"></rect>
                                    <rect id="Rectangle-Copy-7" fill-opacity="0.63" fill="#FFFFFF" fill-rule="nonzero" x="55.2631579" y="33.5263158" width="21.8119927" height="14.1632562" rx="2"></rect>
                                    <rect id="Rectangle-Copy" fill-opacity="0.63" fill="#FFFFFF" fill-rule="nonzero" x="21.0526316" y="33.5263158" width="21.8119927" height="14.1632562" rx="2"></rect>
                                    <rect id="Rectangle-Copy-3" fill-opacity="0.82" fill="#FFFFFF" fill-rule="nonzero" x="87.5" y="60.2105263" width="21.8119927" height="14.1632562" rx="2"></rect>
                                </g>
                                <path d="M100.789474,81.9651507 L46.7894737,81.9651507 L46.7894737,40.3157895 C46.7894737,37.5543657 49.0280499,35.3157895 51.7894737,35.3157895 L95.7894737,35.3157895 C98.5508974,35.3157895 100.789474,37.5543657 100.789474,40.3157895 L100.789474,81.9651507 Z" id="Combined-Shape" fill-opacity="0.43" fill="#3287BD" fill-rule="nonzero"></path>
                                <rect id="Rectangle" fill="#1890FF" fill-rule="nonzero" x="41" y="44" width="50" height="50" rx="5"></rect>
                            </g>
                        </g>
                    </g>
                    <g id="setting" transform="translate(32.894737, 40.368421)">
                        <rect id="Rectangle" fill="#000000" opacity="0" x="0" y="0" width="34.2105263" height="35.5789474"></rect>
                        <path d="M32.5899668,13.2396792 C32.5171655,12.9099449 32.3111308,12.6290713 32.0248439,12.4692844 C31.738557,12.3094974 31.3999519,12.2863881 31.0961002,12.4058989 C29.6140582,12.9884346 27.9451971,12.3653955 27.1556976,10.934821 C26.366198,9.50424645 26.6890694,7.68834975 27.9180396,6.64724775 C28.1699345,6.43422994 28.3212925,6.11830145 28.3332676,5.78054556 C28.3452426,5.44278966 28.2166687,5.11609051 27.9805445,4.8842957 C26.1774851,3.11479149 24.0062344,1.80335123 21.6362994,1.05235744 C21.3226643,0.953302451 20.9831578,1.0016348 20.7065343,1.18471932 C20.4299109,1.36780385 20.2436701,1.66743982 20.1964995,2.0052957 C19.9614078,3.65574588 18.6013597,4.87783624 16.9996875,4.87783624 C15.3980152,4.87783624 14.0379672,3.65574588 13.8028755,2.0052957 C13.7561747,1.66683504 13.569917,1.36649745 13.2929322,1.1830199 C13.0159474,0.999542345 12.6758591,0.951223096 12.3618255,1.0507296 C9.99189045,1.80172339 7.82063978,3.11316365 6.01758035,4.88266786 C5.78145615,5.11446267 5.65288227,5.44116181 5.66485729,5.77891771 C5.67683232,6.11667361 5.82819034,6.4326021 6.08008522,6.64561991 C7.30735826,7.68717921 7.6294754,9.50165615 6.84095301,10.931567 C6.05243061,12.3614779 4.38552735,12.9856436 2.90358731,12.4058989 C2.59973553,12.2863881 2.26113052,12.3094974 1.97484361,12.4692844 C1.68855671,12.6290713 1.48252199,12.9099449 1.40972071,13.2396792 C0.865650997,15.7043663 0.863407422,18.2652869 1.4031577,20.7310045 C1.47555569,21.0615498 1.68180834,21.343241 1.96867851,21.503369 C2.25554868,21.6634971 2.59492609,21.6863712 2.89921196,21.5660871 C4.38441699,20.9795242 6.05857674,21.604925 6.84752651,23.0410235 C7.63647628,24.477122 7.3060311,26.2976391 6.0682093,27.3345052 C5.81437965,27.5462637 5.66091865,27.8620759 5.64737823,28.2005469 C5.63383781,28.5390178 5.76154256,28.8670365 5.99757878,29.1000618 C7.80415941,30.87873 9.98227494,32.1964577 12.3605754,32.9495808 C12.6742104,33.0486358 13.013717,33.0003034 13.2903404,32.8172189 C13.5669639,32.6341344 13.7532047,32.3344984 13.8003753,31.9966425 C14.035467,30.3461923 15.395515,29.124102 16.9971873,29.124102 C18.5988596,29.124102 19.9589076,30.3461923 20.1939993,31.9966425 C20.2411699,32.3344984 20.4274107,32.6341344 20.7040341,32.8172189 C20.9806576,33.0003034 21.3201641,33.0486358 21.6337992,32.9495808 C24.0129908,32.1968245 26.1919967,30.8790759 27.999296,29.1000618 C28.2355907,28.8674981 28.3637761,28.5398313 28.3508361,28.2014565 C28.3378961,27.8630818 28.1850957,27.547076 27.9317907,27.3348308 C26.6960953,26.2971698 26.3670133,24.4781143 27.155378,23.0430807 C27.9437428,21.6080471 29.6160023,20.9821623 31.100788,21.5664126 C31.4050739,21.6866967 31.7444513,21.6638227 32.0313215,21.5036946 C32.3181917,21.3435665 32.5244443,21.0618754 32.5968423,20.7313301 C33.1365926,18.2656125 33.134349,15.7046919 32.5902793,13.2400047 L32.5899668,13.2396792 Z M17,22 C14.2429936,22 12,19.7570064 12,17 C12,14.2429936 14.2429936,12 17,12 C19.7570064,12 22,14.2429936 22,17 C22,19.7570064 19.7570064,22 17,22 Z" id="Shape" fill="url(#linearGradient-4)" fill-rule="nonzero"></path>
                    </g>
                </g>
            </g>
        </g>
    </g>
</svg>