<?xml version="1.0" encoding="UTF-8"?>
<svg width="43px" height="134px" viewBox="0 0 43 134" version="1.1" xmlns="http://www.w3.org/2000/svg" xmlns:xlink="http://www.w3.org/1999/xlink">
    <!-- Generator: Sketch 52.4 (67378) - http://www.bohemiancoding.com/sketch -->
    <title>Path 4 Copy 3</title>
    <desc>Created with Sketch.</desc>
    <g id="新用户指引_移动" stroke="none" stroke-width="1" fill="none" fill-rule="evenodd">
        <g id="05-未安装" transform="translate(-156.000000, -539.000000)" fill="#1890FF" fill-rule="nonzero">
            <g id="Group-4-Copy" transform="translate(158.000000, 504.000000)">
                <path id="Path-4-Copy-3" d="M34.1246201,168.828348 L13.2645839,164.814759 L24.8194691,149.732166 L34.1246201,168.828348 Z M39.326471,35.659717 L40.673529,38.340283 C38.8816284,39.2407623 37.1516449,40.1799171 35.4835347,41.157708 L33.9664534,38.5695688 C35.690734,37.5588527 37.4774211,36.5889153 39.326471,35.659717 Z M28.8073735,41.8429143 L30.5056723,44.3159249 C28.8635325,45.443637 27.2916449,46.615245 25.789916,47.8307325 L23.9025068,45.4988477 C25.4658591,44.2334827 27.1008459,43.0148437 28.8073735,41.8429143 Z M19.2973461,49.5599638 L21.3771038,51.722048 C19.9545412,53.0904431 18.6087747,54.5071428 17.3396749,55.972204 L15.0721328,54.0079603 C16.4010599,52.4738341 17.8095074,50.9911495 19.2973461,49.5599638 Z M11.2745018,58.8340391 L13.7176681,60.5749981 C12.5834595,62.1666841 11.5284092,63.8088432 10.5524266,65.5016151 L7.95346022,64.0031579 C8.9774636,62.2270976 10.0845077,60.5040114 11.2745018,58.8340391 Z M5.12897505,69.4938236 L7.85881811,70.7379928 C7.05458421,72.5025699 6.32661819,74.3164978 5.67492074,76.1799191 L2.84310882,75.1895448 C3.52479098,73.2403871 4.28674616,71.3417659 5.12897505,69.4938236 Z M1.05948534,81.1076038 L3.96618228,81.8499735 C3.48804964,83.7220685 3.0793765,85.6394978 2.74021663,87.602341 L-0.215977253,87.0915399 C0.136529606,85.0514529 0.56166589,83.056781 1.05948534,81.1076038 Z M-1.02855529,93.0736811 L1.95643875,93.3733651 C1.76336824,95.2964381 1.63151971,97.2595359 1.56094767,99.262683 L-1.43719227,99.1570567 C-1.36435683,97.0896642 -1.22816268,95.0618643 -1.02855529,93.0736811 Z M-1.47475642,105.256723 L1.52461995,105.195556 C1.5656231,107.206188 1.65783723,109.177256 1.80122259,111.108763 L-1.19054518,111.330857 C-1.33794422,109.345282 -1.43266805,107.32057 -1.47475642,105.256723 Z M-0.560330759,117.394135 L2.41273101,116.993007 C2.68059697,118.978363 3.00738015,120.918102 3.39302736,122.81226 L0.453337099,123.410776 C0.0542551842,121.450632 -0.28361637,119.445073 -0.560330759,117.394135 Z M1.89083355,129.356629 L4.77832028,128.542737 C5.31812682,130.457836 5.92452341,132.321435 6.5974681,134.133626 L3.78511386,135.177974 C3.08383062,133.28947 2.45241784,131.34899 1.89083355,129.356629 Z M6.16360883,140.824956 L8.87443303,139.539876 C9.71869152,141.320804 10.6354317,143.046086 11.624677,144.715867 L9.04362994,146.244983 C8.00722319,144.495597 7.04720832,142.688873 6.16360883,140.824956 Z M12.4391986,151.399471 L14.8624509,149.630899 C16.0129936,151.207343 17.2380624,152.727334 18.5377677,154.190995 L16.2945308,156.182951 C14.9313376,154.647793 13.6461901,153.05326 12.4391986,151.399471 Z"></path>
            </g>
        </g>
    </g>
</svg>