<?xml version="1.0" encoding="utf-8"?>
<!-- Generator: Adobe Illustrator 22.0.0, SVG Export Plug-In . SVG Version: 6.00 Build 0)  -->
<svg version="1.1" id="图层_1" xmlns="http://www.w3.org/2000/svg" xmlns:xlink="http://www.w3.org/1999/xlink" x="0px" y="0px"
	 viewBox="0 0 1024 1024" style="enable-background:new 0 0 1024 1024;" xml:space="preserve">
<style type="text/css">
	.st0{fill:#1890FF;}
</style>
<title>sync-o</title>
<path class="st0" d="M1022,551c-19.6,267-242.2,473.5-510,473c-103.3,0-197.7-28.3-283-85c-65.3-43.3-117.7-98.3-157-165v86
	c0.2,9.6-3.6,18.8-10.5,25.5c-6.7,6.9-15.9,10.7-25.5,10.5c-9.6,0.2-18.8-3.6-25.5-10.5C3.6,878.8-0.2,869.6,0,860V676
	c-0.2-9.6,3.6-18.8,10.5-25.5c6.7-6.9,15.9-10.7,25.5-10.5h184c19.9,0,36,16.1,36,36s-16.1,36-36,36H120
	c34.7,68.7,84.3,124.3,149,167c73.3,48.7,154.3,73,243,73c169.2,0.2,323.5-96.9,396.5-249.5c23.6-49.5,38-102.9,42.5-157.5
	c0.4-9.5,4.8-18.4,12-24.5c15.2-12.9,38-11.1,51,4C1020.5,531.7,1023.5,541.4,1022,551z M1024,164v184c0.1,19.8-15.9,35.9-35.7,36
	c-0.1,0-0.2,0-0.3,0H804c-19.9,0-36-16.1-36-36s16.1-36,36-36h100c-34.7-68.7-84.3-124.3-149-167c-73.3-48.7-154.3-73-243-73
	c-169.2,0.1-323.5,97-397,249.5C91.1,370.8,76.8,424.3,73,479c-0.5,9.1-4.7,17.5-11.5,23.5c-6.6,6.2-15.4,9.6-24.5,9.5h-2
	c-9.7-0.5-18.8-5-25-12.5c-6.5-7.2-9.8-16.8-9-26.5c5.2-63.5,22-125.5,49.5-183c27.4-57.7,65.6-109.6,112.5-153
	C257.8,48.7,382.5-0.2,512,0c103.3,0,197.7,28.3,283,85c65.3,43.3,117.7,98.3,157,165v-86c-0.1-19.8,15.9-35.9,35.7-36
	c0.1,0,0.2,0,0.3,0h15l10.5,10.5C1020.4,145.2,1024.2,154.4,1024,164z"/>
</svg>
