<?xml version="1.0" encoding="UTF-8"?>
<svg width="261px" height="146px" viewBox="0 0 261 146" version="1.1" xmlns="http://www.w3.org/2000/svg" xmlns:xlink="http://www.w3.org/1999/xlink">
    <!-- Generator: Sketch 62 (91390) - https://sketch.com -->
    <title>形状结合</title>
    <desc>Created with Sketch.</desc>
    <g id="页面-1" stroke="none" stroke-width="1" fill="none" fill-rule="evenodd">
        <g id="版本更新" transform="translate(-239.000000, -478.000000)" fill="#FFFFFF">
            <path d="M261.5,478 C269.76834,478 276.995003,482.459949 280.905523,489.105382 C281.926997,489.035323 282.959373,489 284,489 C308.852814,489 329,509.147186 329,534 C329,537.54984 328.588963,541.003677 327.811887,544.316514 C329.343743,544.107655 330.9093,544 332.5,544 C348.345464,544 361.695933,554.682346 365.742675,569.238306 C368.351667,568.433232 371.12524,568 374,568 C378.334671,568 382.439285,568.984986 386.102232,570.743345 C390.080344,561.484156 399.282944,555 410,555 C411.817207,555 413.590872,555.186428 415.302912,555.541202 C414.451557,552.168692 414,548.63708 414,545 C414,521.251756 433.251756,502 457,502 C480.748244,502 500,521.251756 500,545 C500,568.748244 480.748244,588 457,588 C449.354955,588 442.175894,586.004888 435.955074,582.50692 C435.176581,596.165007 423.853615,607 410,607 C406.630099,607 403.409938,606.358884 400.454836,605.191968 C396.652637,616.140907 386.244113,624 374,624 C363.134062,624 353.713747,617.810547 349.072363,608.764948 C344.155128,611.464857 338.50684,613 332.5,613 C313.446176,613 298,597.553824 298,578.5 C298,577.917575 298.014432,577.33852 298.042959,576.763175 C293.624959,578.215523 288.904092,579 284,579 C259.147186,579 239,558.852814 239,534 C239,526.872625 240.657,520.132262 243.606789,514.143124 C240.716881,510.359146 239,505.630073 239,500.5 C239,488.073593 249.073593,478 261.5,478 Z" id="形状结合"></path>
        </g>
    </g>
</svg>