<?xml version="1.0" encoding="UTF-8"?>
<svg width="623px" height="623px" viewBox="0 0 623 623" version="1.1" xmlns="http://www.w3.org/2000/svg" xmlns:xlink="http://www.w3.org/1999/xlink">
    <!-- Generator: Sketch 62 (91390) - https://sketch.com -->
    <title>插图</title>
    <desc>Created with Sketch.</desc>
    <defs>
        <rect id="path-1" x="0" y="0" width="623" height="623"></rect>
        <linearGradient x1="40.7469738%" y1="23.3990371%" x2="59.5232213%" y2="88.224527%" id="linearGradient-3">
            <stop stop-color="#E7ECFF" offset="0%"></stop>
            <stop stop-color="#A4B7FF" offset="100%"></stop>
        </linearGradient>
        <linearGradient x1="50%" y1="0%" x2="50%" y2="100%" id="linearGradient-4">
            <stop stop-color="#F49446" offset="0%"></stop>
            <stop stop-color="#FBC8A7" offset="100%"></stop>
        </linearGradient>
        <linearGradient x1="48.5549133%" y1="49.2315146%" x2="51.734104%" y2="50.9221825%" id="linearGradient-5">
            <stop stop-color="#00BCA7" offset="0%"></stop>
            <stop stop-color="#00BCA7" stop-opacity="0" offset="100%"></stop>
        </linearGradient>
        <linearGradient x1="38.7755754%" y1="-3.69565217%" x2="58.1713555%" y2="77.7237852%" id="linearGradient-6">
            <stop stop-color="#00CBB9" offset="0%"></stop>
            <stop stop-color="#009795" offset="100%"></stop>
        </linearGradient>
        <linearGradient x1="33.2531776%" y1="41.2728476%" x2="61.8000687%" y2="56.735536%" id="linearGradient-7">
            <stop stop-color="#00BCA7" offset="0%"></stop>
            <stop stop-color="#00BCA7" stop-opacity="0" offset="100%"></stop>
        </linearGradient>
        <linearGradient x1="24.6956522%" y1="33.3363043%" x2="67.7826087%" y2="62.3619565%" id="linearGradient-8">
            <stop stop-color="#00BCA7" offset="0%"></stop>
            <stop stop-color="#00BCA7" stop-opacity="0" offset="100%"></stop>
        </linearGradient>
        <linearGradient x1="25.4636785%" y1="34.0354304%" x2="62.1715611%" y2="57.9069012%" id="linearGradient-9">
            <stop stop-color="#00BCA7" offset="0%"></stop>
            <stop stop-color="#00BCA7" stop-opacity="0" offset="100%"></stop>
        </linearGradient>
        <path d="M0,16.2089028 C6.90558196,17.6398105 13.0598304,22.661869 18.4627453,31.2750783 C26.5671177,44.1948923 24.681172,55.2073846 24.681172,55.2073846 C24.681172,55.2073846 36.9651916,48.7076376 61.5332308,35.7081437 C60.2723516,26.4194593 57.8649202,18.8302902 54.3109365,12.9406363 C50.7569528,7.05098237 46.3832783,2.73743695 41.1899129,0 L0,16.2089028 Z" id="path-10"></path>
    </defs>
    <g id="页面-1" stroke="none" stroke-width="1" fill="none" fill-rule="evenodd">
        <g id="01备份" transform="translate(-63.000000, -463.000000)">
            <g id="插图" transform="translate(63.000000, 463.000000)">
                <mask id="mask-2" fill="white">
                    <use xlink:href="#path-1"></use>
                </mask>
                <use id="Mask" fill="#FFFFFF" xlink:href="#path-1"></use>
                <g id="Group-6" mask="url(#mask-2)">
                    <g transform="translate(9.000000, 36.000000)">
                        <path d="M128.343289,506.238402 C102.762731,526.654947 161.794414,518.555645 184.994819,518.555645 C208.195224,518.555645 224.230835,524.147998 204.452203,530.413433 C184.673572,536.678868 128.343289,549.14153 128.343289,557.891703 C128.343289,566.641875 176.57735,567.957967 247.802987,553.845479 C319.028623,539.732991 397.071786,547.843133 442.137715,535.326879 C487.203645,522.810624 512.831965,501.717155 475.074016,490.131459 C437.316067,478.545763 395.190911,476.445916 343.286539,476.445916 C291.382167,476.445916 153.923847,485.821857 128.343289,506.238402 Z" id="Path-25" fill="#E3E9FC"></path>
                        <path d="M243.67605,494.824445 L362.063097,494.824445 L362.063097,483.92936 C345.668111,485.7109 335.841666,477.199863 332.583761,458.396249 C327.696903,430.190829 329.579366,410.856334 335.556518,405.132827 C339.541286,401.317156 331.168568,396.759285 310.438362,391.459215 L274.754323,407.414071 L282.797682,417.825607 C291.804378,426.133127 295.578125,434.571869 294.118922,443.14183 C291.930119,455.996773 283.615403,478.945269 269.764033,480.883121 C260.529787,482.175022 251.833792,483.190435 243.67605,483.92936 L243.67605,494.824445 Z" id="Path-26" fill="#A0A0C2"></path>
                        <g id="paperplane_1_" stroke-width="1" fill="none" transform="translate(211.553295, 44.526595) scale(-1, 1) rotate(25.000000) translate(-211.553295, -44.526595) translate(164.053295, 18.526595)">
                            <polygon id="Path" fill="#9AEEC5" fill-rule="nonzero" points="0.205263905 20.032016 23.9014675 31.9028819 94.9900782 0.247239468"></polygon>
                            <polygon id="Path" fill="#7BE6B1" fill-rule="nonzero" points="27.8508348 51.6876585 23.9014675 31.9028819 94.9900782 0.247239468"></polygon>
                            <polygon id="Path" fill="#60DFA0" fill-rule="nonzero" points="27.8508348 51.6876585 35.7495693 35.8598373 55.4964056 31.9028819"></polygon>
                            <polygon id="Path" fill="#9AEEC5" fill-rule="nonzero" points="35.7495693 35.8598373 55.4964056 43.7737479 94.9900782 0.247239468"></polygon>
                        </g>
                        <g id="pie_chart" stroke-width="1" fill="none" transform="translate(0.000000, 204.547461)">
                            <g id="Group" transform="translate(55.790736, 0.000000)" fill-rule="nonzero">
                                <path d="M1.80147812,0.556026755 C17.092651,0.556026755 30.9362638,3.58986095 41.115608,8.42919647 L0.0120743256,28.9461609 L0.0120743256,0.589853478 C0.65144856,0.556026755 1.20536188,0.556026755 1.80147812,0.556026755 Z" id="Path" fill="#1B90FB"></path>
                                <polygon id="Path" fill="#1277D7" points="41.1166631 8.42813939 41.1166631 22.6966739 0.0131293986 43.2146954 0.0131293986 28.9461609"></polygon>
                            </g>
                            <g id="Group" transform="translate(0.000000, 14.714567)" fill-rule="nonzero">
                                <path d="M55.8038657,0.0698246208 L55.8038657,28.4599588 L16.5319387,48.0910859 C6.81999183,43.0128491 0.814516352,36.0942273 0.814516352,28.4599588 C0.814516352,20.7918636 6.81999183,13.9070684 16.5741417,8.79500492 C26.4992133,3.61423091 40.3839739,0.307668765 55.8038657,0.0698246208 Z" id="Path" fill="#FFD255"></path>
                                <polygon id="Path" fill="#FFBC00" points="55.8038657 28.4599588 55.8038657 42.7284933 16.5319387 62.3596204 16.5319387 48.0910859"></polygon>
                                <path d="M1.90440675,34.0339684 C1.19012234,32.2326954 0.814516352,30.3679973 0.814516352,28.4599588 L0.814516352,28.4599588 L0.814516352,42.7284933 C0.814516352,50.3627617 6.81999183,57.2813836 16.5319387,62.3596204 L16.5319387,48.0910859 C9.24771479,44.2824083 4.04937015,39.4388445 1.90440675,34.0339684 Z" id="Path" fill="#FFC31B"></path>
                            </g>
                            <g id="Group" transform="translate(59.084088, 24.312957)" fill-rule="nonzero">
                                <path d="M41.3725773,0.595138903 C52.1490929,5.80973963 58.8783484,13.0687429 58.8783484,21.1469871 C58.8783484,29.1903476 52.1480378,36.4842346 41.3725773,41.6639516 L0.311246533,21.1469871 L41.3725773,0.595138903 Z" id="Path" fill="#DAE7FF"></path>
                                <path d="M41.3725773,41.6639516 L41.3725773,41.6639516 L41.3725773,55.9324861 C49.8553642,51.8542518 58.8783484,44.8383781 58.8783484,35.4155216 L58.8783484,21.1469871 C58.8783484,30.6004991 49.8437584,37.5920598 41.3725773,41.6639516 Z" id="Path" fill="#AEC1E8"></path>
                                <polygon id="Path" fill="#C3D3F3" points="41.3725773 41.6639516 41.3725773 55.9324861 0.311246533 35.4155216 0.311246533 21.1469871"></polygon>
                            </g>
                            <g id="Group" transform="translate(16.881168, 53.911339)" fill-rule="nonzero">
                                <path d="M40.1054347,0.417548609 L81.2089684,20.934513 C71.028569,25.8087324 57.1860114,28.8076828 41.8948385,28.8076828 C41.3409251,28.8076828 40.7448089,28.8076828 40.1486927,28.773856 C24.7298559,28.5698386 10.8862432,25.2632765 0.834562738,20.0486757 L40.1054347,0.417548609 Z" id="Path" fill="#7CE3B0"></path>
                                <path d="M41.8948385,28.8076828 C41.3409251,28.8076828 40.7448089,28.8076828 40.1486927,28.773856 C24.7298559,28.5687815 10.8862432,25.2632765 0.834562738,20.0486757 L0.834562738,34.3172102 C10.8872982,39.5318109 24.7298559,42.837316 40.1486927,43.0423905 C40.7448089,43.0762172 41.3409251,43.0762172 41.8948385,43.0762172 C53.3634819,43.0762172 64.017609,41.3891094 72.9224251,38.4895251 C75.8903454,37.5233493 78.6651874,36.4218666 81.2100234,35.2030475 L81.2100234,20.934513 C71.0296241,25.8087324 57.1860114,28.8076828 41.8948385,28.8076828 Z" id="Path" fill="#2CCD7F"></path>
                            </g>
                        </g>
                        <g id="Group-3" stroke-width="1" fill="none" transform="translate(128.343289, 122.229581)">
                            <path d="M169.363771,295.47788 C261.92333,295.47788 344.231989,224.396127 336.957678,142.18543 C329.683366,59.9747344 261.92333,1.59519197e-13 169.363771,1.59519197e-13 C76.8042121,1.59519197e-13 17.4112159,55.6751647 1.76986424,142.18543 C-13.8714874,228.695696 76.8042121,295.47788 169.363771,295.47788 Z" id="Oval" fill="#798298"></path>
                            <path d="M169.45727,281.87638 C255.939074,281.87638 332.843085,215.566891 326.046428,138.875632 C319.249771,62.1843722 255.939074,6.23620309 169.45727,6.23620309 C82.9754656,6.23620309 27.4824023,58.1734657 12.8681115,138.875632 C-1.74617928,219.577798 82.9754656,281.87638 169.45727,281.87638 Z" id="Oval" fill="url(#linearGradient-3)"></path>
                            <path d="M161.74939,329.015132 L150.511808,359.526243 C162.730575,382.437794 168.839958,393.893569 168.839958,393.893569 C168.839958,393.893569 171.523714,390.869051 176.891226,384.820015 C171.133918,374.76292 169.69459,366.040761 172.573245,358.65354 C175.451899,351.266319 177.708645,345.534778 179.343483,341.458915 L161.74939,329.015132 Z" id="Path-27" fill="#FBC8A5"></path>
                        </g>
                        <g id="Group" stroke-width="1" fill="none" transform="translate(163.022212, 281.876380)">
                            <g id="Group-5" transform="translate(147.633965, 71.852579)"></g>
                            <path d="M158.760814,107.11166 C148.562014,126.092291 137.663932,147.560096 126.066568,171.515073 L145.561675,200.944592 C162.0029,177.16988 176.335736,158.859154 188.560181,146.012413 C206.896849,126.742302 264.753057,67.0294392 272.823187,58.0892574 C280.893316,49.1490756 280.938339,39.8258302 272.823187,22.2676299 C267.413085,10.562163 263.780796,3.13961969 261.926322,0 L228.100408,4.70942954 L88.1958554,12.4724062 C80.9848199,5.72829358 69.7687353,3.92604713 54.5476015,7.06566682 C39.3264677,10.2052865 22.3230586,15.9997586 3.53737429,24.4490829 L-3.54149094e-14,73.2059598 C22.1356577,81.4449662 42.7474238,87.0055806 61.8352983,89.8878031 C80.9231728,92.7700256 110.159139,94.7362972 149.543198,95.7866179 L169.561548,73.2059598 C172.559859,76.8291289 168.959615,88.131029 158.760814,107.11166 Z" id="Path-11" fill="#003BBB"></path>
                            <path d="M3.53737429,24.4490829 C3.53737429,37.1618428 3.53737429,46.4390069 3.53737429,52.2805752 C3.53737429,58.1221436 2.35824953,64.3883909 0,71.0793171 C15.4125844,80.7121397 37.5437868,87.2118386 66.3936072,90.5784139 C95.2434277,93.9449891 122.959958,95.6810571 149.543198,95.7866179 L162.791012,78.2338986 L169.561548,73.2059598 C115.49379,50.3431299 79.5939637,37.4574128 61.8620689,34.5488087 C44.1301741,31.6402046 34.7823553,30.7620206 33.8186125,31.9142565" id="Path-9" stroke-opacity="0.448317308" stroke="#1E1A2C"></path>
                            <path d="M41.4299906,24.4490829 C47.9531019,24.5723911 52.9815194,25.6452243 56.5152431,27.6675826 C60.0489669,29.689941 62.3820682,31.8801523 63.5145472,34.2382166" id="Path-10" stroke-opacity="0.448317308" stroke="#1E1A2C"></path>
                            <path d="M218.223261,29.3436498 C197.392462,46.1744961 177.571647,72.0971662 158.760814,107.11166 C139.949982,142.126154 129.0519,163.593958 126.066568,171.515073 L145.561675,200.944592 C162.0029,177.16988 176.335736,158.859154 188.560181,146.012413 C206.896849,126.742302 264.753057,67.0294392 272.823187,58.0892574 C280.893316,49.1490756 280.938339,39.8258302 272.823187,22.2676299 C267.413085,10.562163 263.780796,3.13961969 261.926322,0 L228.100408,4.70942954 L88.1958554,12.4724062 C80.9848199,5.72829358 69.7687353,3.92604713 54.5476015,7.06566682 C39.3264677,10.2052865 22.3230586,15.9997586 3.53737429,24.4490829" id="Path-11" stroke-opacity="0.448317308" stroke="#1E1A2C"></path>
                            <path d="M153.269792,101.797489 L133.9274,128.560788 L139.31134,135.831081 C170.746149,111.434778 186.729637,97.3588637 187.261805,93.6033378 C188.060057,87.9700488 186.54204,85.3239256 185.460263,84.5346561 C184.739078,84.0084765 181.767132,82.1189394 176.544425,78.8660449 C175.402617,77.4076829 174.831713,77.0430923 174.831713,77.7722734 C174.831713,78.8660449 162.764241,98.3456535 162.764241,98.3456535 C162.764241,98.3456535 157.566479,102.792602 155.418135,102.792602 C153.985906,102.792602 153.269792,102.460898 153.269792,101.797489 Z" id="Path-15" fill="#303552"></path>
                            <path d="M151.133617,95.2625053 L157.282345,100.472296 L156.31191,102.306008 C162.918578,101.096932 166.221912,99.9822509 166.221912,98.9619658 C166.221912,97.9416808 169.693171,91.9959727 176.635689,81.1248416 C175.263332,77.2682209 172.905285,75.0707307 169.561548,74.532371 C166.217811,73.9940113 160.075167,80.9040561 151.133617,95.2625053 Z" id="Path-28" fill="#FBC8A5"></path>
                        </g>
                        <g id="上衣" stroke-width="1" fill="none" transform="translate(214.380630, 162.141280)">
                            <path d="M74.9314425,12.8256286 C42.7109558,24.7649531 22.6256788,38.5690485 14.6756116,54.2379148 C2.75051079,77.7412142 -1.65690913,95.4480115 0.546800832,107.011783 C2.75051079,118.575555 2.00275829,132.505309 18.6309729,138.823118 C29.7164492,143.034991 38.4803843,145.894846 44.9227781,147.402682 C79.9383624,148.52006 98.0192895,149.078749 99.1655594,149.078749 C100.311829,149.078749 111.070582,145.154529 131.441818,137.306089 C134.9942,146.001451 140.746845,147.595418 148.699751,142.08799 C160.629111,133.826848 183.713307,130.187439 183.713307,113.149937 C183.713307,96.1124351 197.010403,81.7076586 180.293359,59.9826515 C163.576314,38.2576444 158.322159,14.3128169 135.186246,9.74528534 C112.050334,5.17775378 106.427094,12.0007138 105.377563,12.0007138 C104.677876,12.0007138 101.006467,15.5371059 94.3633356,22.6098902 L91.5170674,28.5026149 L94.3633356,43.8202888 L91.5170674,47.6350911 L87.5282429,26.0532 L74.9314425,12.8256286 Z" id="Path-14" fill="#7373F7"></path>
                            <g id="Group-2" transform="translate(42.877258, 44.911624)" opacity="0.507742746" stroke="#41496E">
                                <path d="M92.3094067,0 C92.2838529,5.93291899 93.4280947,14.0692152 95.7421322,24.4088887 C98.0561696,34.7485621 99.8376336,42.406993 101.086524,47.3841814 L101.086524,48.2623655" id="Path-17"></path>
                                <line x1="100.144685" y1="4.56874957" x2="94.3226801" y2="14.9309562" id="Path-18"></line>
                                <path d="M117.875363,45.8269577 C108.837434,44.8135746 101.455229,47.3628663 95.7287468,53.4748325 C90.0022648,59.5867987 86.7688994,67.879203 86.0286508,78.3520454 C97.5732841,80.0487311 103.345601,83.0300097 103.345601,87.2958812 C103.345601,91.5617527 100.806649,93.4456057 95.7287468,92.9474402" id="Path-19"></path>
                                <line x1="0" y1="1.46770014" x2="2.11792224" y2="41.4092411" id="Path-20"></line>
                                <line x1="5.97167676" y1="1.46770014" x2="1.24605135" y2="15.923633" id="Path-21"></line>
                            </g>
                            <path d="M75.7759684,12.5259102 C75.7759684,12.5259102 71.4361152,12.2145434 65.314777,14.1674354 C62.7986505,14.9701558 68.9995718,17.3263933 73.6401893,19.9288856 C76.7339342,21.6638805 79.5260164,23.8925203 82.0164357,26.6148049 L87.3845903,27.4486266 L92.4749303,53.6505142 L97.6812163,53.6505142 L92.4741359,29.7637011 C95.6620237,22.0919871 99.0700725,17.8568872 102.698282,17.0584014 C106.326492,16.2599156 112.107565,11.026535 120.041501,1.35825954 C113.420761,0.835306878 107.639559,2.17390712 102.697894,5.37406027 C97.756229,8.57421342 94.3482748,15.6545777 92.4740312,26.615153 C90.638255,27.8919692 88.9417654,27.8919128 87.3845626,26.6149836 C85.0487583,24.6995898 75.7759684,12.5259102 75.7759684,12.5259102 Z" id="Path-23" fill="#FFFFFF" transform="translate(92.387950, 27.449296) rotate(2.000000) translate(-92.387950, -27.449296) "></path>
                        </g>
                        <g id="电脑" stroke-width="1" fill="none" transform="translate(233.011603, 254.437086)">
                            <path d="M99.7041861,64.1896525 C101.277569,64.1896525 110.939639,59.4073455 128.690395,49.8427314 L86.7465905,50.6411359 C93.8116044,59.6734803 98.1308029,64.1896525 99.7041861,64.1896525 Z" id="Path-30" stroke="#77809A" fill="#303552"></path>
                            <path d="M108.268964,44.3257623 C106.334583,47.0610032 105.367392,49.1860219 105.367392,50.7008183 C105.367392,52.2156148 104.811496,54.5742881 103.699703,57.7768382 C104.611527,58.14253 105.601027,57.2525427 106.668202,55.1068762 C107.735376,52.9612098 108.588183,51.1309783 109.226622,49.6161818 C111.898502,49.7392007 113.94463,49.1937359 115.365007,47.9797875 C116.785385,46.7658391 119.5312,44.9221804 123.602453,42.4488113 L126.781466,41.0123226 C127.453673,39.9233216 126.870651,38.3640171 125.032401,36.3344091 C122.275025,33.289997 112.536294,31.9748524 112.536294,31.9748524 C112.536294,31.9748524 100.590051,36.7259988 97.4682297,39.0676199 C95.3870156,40.6287007 94.1995758,43.5994233 93.90591,47.9797875 L95.2188879,52.7080962 L99.5721582,49.6161818 L96.2842375,57.7768382 C97.0321928,58.763019 97.7671684,59.2561094 98.4891643,59.2561094 C99.5721582,59.2561094 100.422126,58.7707331 100.422126,57.7768382 C100.422126,56.7829434 102.16891,52.7080962 102.16891,52.7080962 C102.16891,52.7080962 104.202261,49.9139849 108.268964,44.3257623 Z" id="Path-29" fill="#FBC8A5"></path>
                            <polygon id="Path-8" stroke-opacity="0.186052229" stroke="#77809A" fill="#303552" points="-8.85372736e-15 1.92201728 20.7326396 61.2938375 99.5721582 64.2974463 91.1746969 -4.4310888e-15"></polygon>
                        </g>
                        <path d="M274.131297,491.832407 C274.131297,497.67154 283.535699,506.55752 285.916461,515.488567 C288.297222,524.419614 303.41107,545.146463 305.107355,543.707995 C306.238212,542.749016 309.237942,538.160779 314.106547,529.943282 L305.982876,503.605677 L297.713184,509.479522 C289.869388,493.968185 285.109285,485.459381 283.432876,483.953111 C281.756466,482.446841 279.887998,481.423511 277.82747,480.883121 C275.363355,484.28989 274.131297,487.939653 274.131297,491.832407 Z" id="Path-16" fill="#303552"></path>
                        <path d="M295.946322,165.594943 C295.103858,172.092206 293.418931,175.340838 290.89154,175.340838 C288.364148,175.340838 287.581564,176.812192 288.543785,179.7549 C294.78203,184.316574 298.899384,187.249335 300.895848,188.553184 C304.734446,191.060092 306.790254,191.671285 306.790254,191.671285 C306.790254,191.671285 307.766374,186.920149 310.552745,182.75181 C312.217038,180.262072 316.102006,178.164869 316.445327,176.900497 C317.363438,173.519306 316.445327,170.865622 316.445327,169.758883 C316.445327,168.652144 308.638645,158.783231 307.71445,156.553058 C307.09832,155.066275 306.51038,153.582538 305.95063,152.101846 L298.636163,162.913498 L295.946322,165.594943 Z" id="Path-22" fill="url(#linearGradient-4)"></path>
                        <path d="M278.517757,120.52985 C273.1469,123.697484 271.617062,128.050849 273.928241,133.589945 C277.395009,141.898589 281.080286,141.199123 281.345183,143.304869 C281.61008,145.410616 275.345852,143.078339 275.345852,144.858959 C275.345852,146.639579 278.488696,148.50324 282.477146,151.369823 C286.465595,154.236406 290.763084,159.890401 293.063158,162.758202 C295.363232,165.626002 301.006034,170.907287 304.679774,168.940812 C307.128934,167.629829 307.689363,159.602545 306.361061,144.858959 C306.855807,143.826494 307.943115,142.473489 309.622985,140.799946 C312.142789,138.289631 312.142789,133.589945 309.622985,133.589945 C307.943115,133.589945 306.295378,134.507105 304.679774,136.341426 C301.612063,131.003707 299.696634,127.44895 298.933487,125.677153 C298.170339,123.905357 297.539266,121.093179 297.040267,117.240618 C292.896116,117.240618 290.824041,117.240618 290.824041,117.240618 C290.824041,117.240618 286.721946,118.337029 278.517757,120.52985 Z" id="Path-12" fill="#FBC8A7"></path>
                        <g id="Group-2" stroke-width="1" fill="none" transform="translate(514.619208, 220.761589)">
                            <path d="M88.8431909,4.07451736 L3.86302958,4.07451736 C1.72988078,4.07451736 1.1332771e-13,5.74927857 1.1332771e-13,7.81646372 L1.1332771e-13,45.2332333 C1.1332771e-13,47.2995204 1.72895372,48.9751796 3.86302958,48.9751796 L88.8431909,48.9751796 C90.9763397,48.9751796 92.7062205,47.2995204 92.7062205,45.2332333 L92.7062205,7.81646372 C92.7062205,5.74927857 90.9772668,4.07451736 88.8431909,4.07451736 Z" id="Path" fill="#DAE7FF" fill-rule="nonzero"></path>
                            <path d="M85.9945839,0.425439502 L3.73916805,0.425439502 C1.67441507,0.425439502 1.1332771e-13,2.10217262 1.1332771e-13,4.17179174 L1.1332771e-13,41.6326169 C1.1332771e-13,43.701337 1.67351774,45.3789692 3.73916805,45.3789692 L85.9945839,45.3789692 C88.0593369,45.3789692 89.7337519,43.701337 89.7337519,41.6326169 L89.7337519,4.17179174 C89.7337519,2.10217262 88.0602342,0.425439502 85.9945839,0.425439502 Z" id="Path" fill="#FFFFFF" fill-rule="nonzero"></path>
                            <polygon id="Rectangle" fill="#7266D5" fill-rule="nonzero" transform="translate(61.693115, 12.600916) rotate(-90.000064) translate(-61.693115, -12.600916) " points="58.8835757 -7.96271344 64.5026545 -7.96271343 64.5026546 33.1645458 58.8835758 33.1645458"></polygon>
                            <polygon id="Rectangle" fill="#8484EF" fill-rule="nonzero" transform="translate(67.300623, 12.601104) rotate(-90.000060) translate(-67.300623, -12.601104) " points="64.4910836 -2.35422252 70.1101624 -2.35422251 70.1101625 27.5564299 64.4910837 27.5564299"></polygon>
                            <polygon id="Rectangle" fill="#7266D5" fill-rule="nonzero" transform="translate(61.693115, 23.839151) rotate(-90.000064) translate(-61.693115, -23.839151) " points="58.8835757 3.27552166 64.5026545 3.27552167 64.5026546 44.4027809 58.8835758 44.4027809"></polygon>
                            <polygon id="Rectangle" fill="#8484EF" fill-rule="nonzero" transform="translate(71.039956, 23.838975) rotate(-90.000062) translate(-71.039956, -23.838975) " points="68.230417 12.6223684 73.8494958 12.6223684 73.8494958 35.0555821 68.230417 35.0555821"></polygon>
                            <polygon id="Rectangle" fill="#7266D5" fill-rule="nonzero" transform="translate(61.693115, 35.077296) rotate(-90.000064) translate(-61.693115, -35.077296) " points="58.8835757 14.5136669 64.5026545 14.5136669 64.5026546 55.6409261 58.8835758 55.6409261"></polygon>
                            <polygon id="Rectangle" fill="#8484EF" fill-rule="nonzero" transform="translate(78.517213, 35.077529) rotate(-90.000079) translate(-78.517213, -35.077529) " points="75.7076733 31.3388098 81.3267521 31.3388098 81.3267521 38.8162486 75.7076733 38.8162486"></polygon>
                            <g id="头像" transform="translate(6.977888, 6.984547)" fill-rule="nonzero">
                                <rect id="Rectangle" fill="#000000" opacity="0" x="0" y="0" width="25.9178681" height="25.9426049"></rect>
                                <path d="M12.9589341,14.1374912 C16.2615536,14.1374912 18.9384667,11.419651 18.9384667,8.06653809 C18.9384667,4.71342518 16.2615536,1.99558499 12.9589341,1.99558499 C9.65631453,1.99558499 6.97940137,4.71342518 6.97940137,8.06653809 C6.97940137,11.419651 9.65631453,14.1374912 12.9589341,14.1374912 Z M12.9589341,16.9706026 C7.45372717,16.9706026 2.99052324,18.7560264 2.99052324,20.9564267 C2.99052324,23.156827 7.45372717,24.9448124 12.9589341,24.9448124 C18.4641409,24.9448124 22.9273449,23.1593886 22.9273449,20.9589883 C22.9273449,18.758588 18.4641409,16.9706026 12.9589341,16.9706026 Z" id="Shape" fill="#FFBF2E"></path>
                            </g>
                        </g>
                        <g id="Group-2-Copy" stroke-width="1" fill="none" transform="translate(475.991616, 249.448124)">
                            <path d="M111.209756,3.84590609 L8.41117371,3.84590609 C5.83075177,3.84590609 3.73815405,5.98587874 3.73815405,8.62728198 L3.73815405,56.4375986 C3.73815405,59.0778544 5.82963033,61.2189745 8.41117371,61.2189745 L111.209756,61.2189745 C113.790178,61.2189745 115.882776,59.0778544 115.882776,56.4375986 L115.882776,8.62728198 C115.882776,5.98587874 113.791299,3.84590609 111.209756,3.84590609 Z" id="Path" fill="#DAE7FF" fill-rule="nonzero"></path>
                            <path d="M107.49323,0.531799378 L4.67396006,0.531799378 C2.09301883,0.531799378 1.41659638e-13,2.62771578 1.41659638e-13,5.21473967 L1.41659638e-13,52.0407712 C1.41659638e-13,54.6266712 2.09189717,56.7237115 4.67396006,56.7237115 L107.49323,56.7237115 C110.074171,56.7237115 112.16719,54.6266712 112.16719,52.0407712 L112.16719,5.21473967 C112.16719,2.62771578 110.075293,0.531799378 107.49323,0.531799378 Z" id="Path" fill="#FFFFFF" fill-rule="nonzero"></path>
                            <polygon id="Rectangle" fill="#7266D5" fill-rule="nonzero" transform="translate(77.116394, 15.751145) rotate(-90.000064) translate(-77.116394, -15.751145) " points="73.6044697 -9.95339181 80.6283182 -9.95339179 80.6283183 41.4556823 73.6044698 41.4556823"></polygon>
                            <polygon id="Rectangle" fill="#8484EF" fill-rule="nonzero" transform="translate(84.125779, 15.751380) rotate(-90.000060) translate(-84.125779, -15.751380) " points="80.6138545 -2.94277816 87.6377031 -2.94277814 87.6377031 34.4455374 80.6138546 34.4455374"></polygon>
                            <polygon id="Rectangle" fill="#7266D5" fill-rule="nonzero" transform="translate(77.116394, 29.798939) rotate(-90.000064) translate(-77.116394, -29.798939) " points="73.6044697 4.09440207 80.6283182 4.09440209 80.6283183 55.5034762 73.6044698 55.5034761"></polygon>
                            <polygon id="Rectangle" fill="#8484EF" fill-rule="nonzero" transform="translate(88.799945, 29.798719) rotate(-90.000062) translate(-88.799945, -29.798719) " points="85.2880212 15.7779605 92.3118697 15.7779605 92.3118698 43.8194776 85.2880213 43.8194776"></polygon>
                            <polygon id="Rectangle" fill="#7266D5" fill-rule="nonzero" transform="translate(77.116394, 43.846621) rotate(-90.000064) translate(-77.116394, -43.846621) " points="73.6044697 18.1420836 80.6283182 18.1420836 80.6283183 69.5511576 73.6044698 69.5511576"></polygon>
                            <polygon id="Rectangle" fill="#8484EF" fill-rule="nonzero" transform="translate(98.146516, 43.846911) rotate(-90.000079) translate(-98.146516, -43.846911) " points="94.6345916 39.1735122 101.65844 39.1735123 101.65844 48.5203107 94.6345916 48.5203107"></polygon>
                            <g id="头像" transform="translate(8.722359, 8.730684)" fill-rule="nonzero">
                                <rect id="Rectangle" fill="#000000" opacity="0" x="0" y="0" width="32.3973351" height="32.4282561"></rect>
                                <path d="M16.1986676,17.671864 C20.326942,17.671864 23.6730834,14.2745638 23.6730834,10.0831726 C23.6730834,5.89178147 20.326942,2.49448124 16.1986676,2.49448124 C12.0703932,2.49448124 8.72425172,5.89178147 8.72425172,10.0831726 C8.72425172,14.2745638 12.0703932,17.671864 16.1986676,17.671864 Z M16.1986676,21.2132533 C9.31715896,21.2132533 3.73815405,23.445033 3.73815405,26.1955334 C3.73815405,28.9460338 9.31715896,31.1810155 16.1986676,31.1810155 C23.0801762,31.1810155 28.6591811,28.9492358 28.6591811,26.1987354 C28.6591811,23.448235 23.0801762,21.2132533 16.1986676,21.2132533 Z" id="Shape" fill="#FFBF2E"></path>
                            </g>
                        </g>
                        <path d="M281.147029,142.721354 C275.815211,137.909409 272.876525,133.18516 272.330972,128.548608 C271.785419,123.912056 271.785419,118.563578 272.330972,112.503174 C272.562173,110.534061 275.500859,109.256776 281.147029,108.67132 C289.616284,107.793136 287.29454,107.082428 291.654503,105.133614 C294.561145,103.834405 296.748833,102.378073 298.217567,100.764618 C301.338374,103.866886 302.898778,106.939718 302.898778,109.983115 C302.898778,113.026512 303.65444,118.859148 305.165764,127.481024 L305.165764,137.06675 L303.953176,137.06675 C298.835928,124.109171 296.011221,117.630381 295.479053,117.630381 C294.680801,117.630381 289.973429,116.229671 287.014665,117.630381 C285.042156,118.564187 282.202238,119.935056 278.494911,121.742986 C280.262989,126.285346 281.147029,130.153537 281.147029,133.347561 C281.147029,136.541585 282.121926,139.990609 284.071721,143.694632 L281.147029,142.721354 Z" id="Path-13" fill="#31374D"></path>
                        <g id="Group-4" stroke-width="1" fill="none" transform="translate(84.731492, 46.147903)" stroke-linecap="round" stroke-linejoin="round" stroke-opacity="0.341919799">
                            <path d="M0,282.590133 C8.08100636,308.239766 19.258843,329.920316 33.53351,347.631782 C47.808177,365.343248 65.5848096,382.301174 86.8634079,398.505558" id="Path-31" stroke="#798298" stroke-width="2"></path>
                            <path d="M131.107966,418.188574 C144.248291,422.992399 153.299199,425.394311 158.26069,425.394311" id="Path-32" stroke="#798298" stroke-width="2"></path>
                            <path d="M275.554435,425.394674 C287.643787,421.833788 307.992905,411.071344 336.60179,393.107344 C365.210674,375.143344 390.248519,351.193239 411.715323,321.257028" id="Path-33" stroke="#798298" stroke-width="2"></path>
                            <path d="M193.487307,0.257489716 C245.74899,2.04368573 286.777271,11.3999344 316.572149,28.3262356 C346.367027,45.2525368 367.848961,63.0809658 381.017949,81.8115227" id="Path-34" stroke="#798298" stroke-width="2"></path>
                            <path d="M402.29936,118.889801 C411.049302,131.044455 416.091916,139.922316 417.427203,145.523383" id="Path-35" stroke="#798298" stroke-width="2"></path>
                            <path d="M440.270463,285.982895 C438.902727,291.651756 436.027723,299.176003 431.645452,308.555636 C425.180455,322.393047 411.516749,338.133973 408.861816,340.547845" id="Path-36" stroke="#798298" stroke-width="2"></path>
                            <path d="M33.53351,97.250664 C40.2523682,86.1635394 53.8819862,71.9522232 74.4223639,54.6167154 C91.5606186,40.1525049 112.469005,29.8627026 131.107966,23.6975717" id="Path-37" stroke="#798298" stroke-width="2"></path>
                        </g>
                        <ellipse id="Oval" fill="#E3E9FC" transform="translate(163.232727, 457.113687) rotate(32.000000) translate(-163.232727, -457.113687) " cx="163.232727" cy="457.113687" rx="16.2030091" ry="4.36417894"></ellipse>
                        <ellipse id="Oval" fill="#E3E9FC" transform="translate(280.984580, 31.804636) rotate(3.000000) translate(-280.984580, -31.804636) " cx="280.98458" cy="31.8046358" rx="25.5441195" ry="6.8598056"></ellipse>
                        <ellipse id="Oval-Copy-4" fill="#E3E9FC" transform="translate(334.495563, 38.040839) rotate(9.000000) translate(-334.495563, -38.040839) " cx="334.495563" cy="38.0408389" rx="11.7685376" ry="3.11802928"></ellipse>
                        <ellipse id="Oval" fill="#E3E9FC" transform="translate(520.226439, 206.418322) rotate(32.000000) translate(-520.226439, -206.418322) " cx="520.226439" cy="206.418322" rx="15.5798179" ry="15.5863346"></ellipse>
                        <ellipse id="Oval-Copy" fill="#E3E9FC" transform="translate(500.912643, 349.227373) rotate(32.000000) translate(-500.912643, -349.227373) " cx="500.912643" cy="349.227373" rx="6.23192716" ry="6.23453386"></ellipse>
                        <path d="M97.4465404,162.140974 L111.880817,162.146938 C114.088664,162.151156 115.878251,163.940744 115.882469,166.148591 L115.888434,180.593571 C115.89265,182.802708 114.102529,184.594309 111.89339,184.595221 C111.892288,184.595221 111.891187,184.595221 111.890087,184.591918 L97.4558099,184.585954 C95.2479628,184.581735 93.4583761,182.792148 93.4541583,180.584301 L93.4481927,166.139321 C93.4439771,163.930184 95.2340983,162.138583 97.4432371,162.137671 C97.4443387,162.13767 97.4454402,162.13767 97.4465404,162.140974 Z" id="Rectangle" fill="#FFEBD3" transform="translate(104.668313, 173.366446) rotate(30.000000) translate(-104.668313, -173.366446) "></path>
                    </g>
                </g>
                <g id="Group-24" opacity="0.303315662" mask="url(#mask-2)">
                    <g transform="translate(516.720058, 186.883535) rotate(70.000000) translate(-516.720058, -186.883535) translate(483.220058, 157.883535)">
                        <g id="编组" opacity="0.1" stroke="none" stroke-width="1" fill="none" fill-rule="evenodd" transform="translate(1.558007, 18.155111)">
                            <polygon id="路径" fill="#3F7AEF" fill-rule="nonzero" points="0.212783386 0.497696731 4.4648446 0.497696731 14.3863208 19.8718043 10.1342595 19.8718043"></polygon>
                            <polygon id="路径" fill="#3F7AEF" fill-rule="nonzero" points="9.66180832 0.0252454865 13.9138695 0.0252454865 4.4648446 19.3993531 0.212783386 19.3993531"></polygon>
                        </g>
                        <polygon id="路径" stroke="none" fill-opacity="0.4" fill="url(#linearGradient-5)" fill-rule="nonzero" opacity="0.42" points="50.4801535 47.9736374 63.8241961 56.2685827 29.5624645 56.2685827 1.43177977 47.9736374"></polygon>
                        <rect id="矩形" stroke="none" fill="#F4FFFE" fill-rule="nonzero" opacity="0.91" x="1.44981224" y="6.84152683" width="50.1447491" height="41.1068649" rx="0.958558559"></rect>
                        <g id="编组" opacity="0.5" stroke="none" stroke-width="1" fill="none" fill-rule="evenodd" transform="translate(27.885443, 13.106014)">
                            <rect id="矩形" fill="#009A96" fill-rule="nonzero" x="0.274093853" y="0.349830312" width="8.16511164" height="3.79764246"></rect>
                            <rect id="矩形" fill="#009A96" fill-rule="nonzero" x="0.274093853" y="6.60710444" width="8.16511164" height="3.79764246"></rect>
                            <rect id="矩形" fill="#009A96" fill-rule="nonzero" x="0.274093853" y="12.8643786" width="8.16511164" height="3.79764246"></rect>
                            <rect id="矩形" fill="#009A96" fill-rule="nonzero" x="0.274093853" y="19.1180463" width="8.16511164" height="3.79764246"></rect>
                            <rect id="矩形" fill="#009A96" fill-rule="nonzero" x="0.274093853" y="25.3753204" width="8.16511164" height="3.79764246"></rect>
                        </g>
                        <g id="编组" opacity="0.5" stroke="none" stroke-width="1" fill="none" fill-rule="evenodd" transform="translate(37.983637, 13.106014)">
                            <rect id="矩形" fill="#009A96" fill-rule="nonzero" x="0.248848366" y="0.349830312" width="8.16511164" height="3.79764246"></rect>
                            <rect id="矩形" fill="#009A96" fill-rule="nonzero" x="0.248848366" y="6.60710444" width="8.16511164" height="3.79764246"></rect>
                            <rect id="矩形" fill="#009A96" fill-rule="nonzero" x="0.248848366" y="12.8643786" width="8.16511164" height="3.79764246"></rect>
                            <rect id="矩形" fill="#009A96" fill-rule="nonzero" x="0.248848366" y="19.1180463" width="8.16511164" height="3.79764246"></rect>
                            <rect id="矩形" fill="#009A96" fill-rule="nonzero" x="0.248848366" y="25.3753204" width="8.16511164" height="3.79764246"></rect>
                        </g>
                        <polygon id="路径" stroke="none" fill="url(#linearGradient-6)" fill-rule="nonzero" points="28.2028149 56.4056297 1.59520045e-15 48.9834569 1.59520045e-15 7.42217302 28.2028149 9.57120269e-15"></polygon>
                        <rect id="矩形" stroke="none" fill="#017A74" fill-rule="nonzero" x="28.2028149" y="4.46656125e-14" width="1.4858772" height="56.4056297"></rect>
                        <polygon id="路径" stroke="none" fill="#009A96" fill-rule="nonzero" points="6.88841132 18.7537899 11.1440791 18.7537899 21.0655552 38.1278976 16.813494 38.1278976"></polygon>
                        <polygon id="路径" stroke="none" fill="#009A96" fill-rule="nonzero" points="16.3410427 18.2813387 20.593104 18.2813387 11.1440791 37.6518398 6.88841132 37.6518398"></polygon>
                        <polygon id="路径" stroke="none" fill="#FFFFFF" fill-rule="nonzero" points="6.23202867 18.652808 10.4876964 18.652808 20.4091726 38.0269155 16.1571114 38.0269155"></polygon>
                        <polygon id="路径" stroke="none" fill="#FFFFFF" fill-rule="nonzero" points="15.6846601 18.1803567 19.9367213 18.1803567 10.4876964 37.5544642 6.23202867 37.5544642"></polygon>
                        <line x1="46.152356" y1="24.5313998" x2="47.4146303" y2="25.4330244" id="路径" stroke="#F6F7F7" stroke-width="0.5" fill="none" stroke-linecap="round"></line>
                        <polygon id="路径" stroke="none" fill-opacity="0.4" fill="url(#linearGradient-7)" fill-rule="nonzero" opacity="0.22" points="44.7746733 53.2174856 51.5873482 57.2639764 55.2731896 57.2639764 50.6244134 53.0371605"></polygon>
                        <polygon id="路径" stroke="none" fill-opacity="0.4" fill="url(#linearGradient-8)" fill-rule="nonzero" opacity="0.22" points="37.6193811 52.7125759 43.0327348 56.7915251 45.9143269 56.820377 41.2619443 52.5899547"></polygon>
                        <polygon id="路径" stroke="none" fill-opacity="0.4" fill="url(#linearGradient-9)" fill-rule="nonzero" opacity="0.22" points="56.7626732 53.2174856 62.3743842 57.2639764 66.0962899 57.2639764 61.8225899 53.2607634"></polygon>
                    </g>
                </g>
                <g id="Group-4" mask="url(#mask-2)">
                    <g transform="translate(183.377134, 477.546623) rotate(39.000000) translate(-183.377134, -477.546623) translate(144.377134, 440.046623)">
                        <path d="M0,21.8585391 C8.66134736,23.7881917 16.3803323,30.5606959 23.1569549,42.1760517 C33.3218888,59.5990853 30.9564357,74.4499976 30.9564357,74.4499976 C30.9564357,74.4499976 46.3637049,65.6847545 77.1782434,48.1542683 C75.5967819,35.6279997 72.5772536,25.3936148 68.1196587,17.4511136 C63.6620637,9.50861238 58.176369,3.69157452 51.6625745,0 L0,21.8585391 Z" id="Combined-Shape" fill="#EFF3FB"></path>
                        <g id="Image" stroke-width="1" fill="none" transform="translate(11.081463, 6.170845)">
                            <mask id="mask-11" fill="white">
                                <use xlink:href="#path-10"></use>
                            </mask>
                            <use id="Mask" fill="#EFF3FB" xlink:href="#path-10"></use>
                            <g mask="url(#mask-11)">
                                <g transform="translate(37.483884, 29.854381) rotate(-20.000000) translate(-37.483884, -29.854381) translate(11.983884, 9.354381)">
                                    <path d="M24.8262973,26.7133823 C24.8253742,26.71569 24.8244511,26.7179977 24.8230665,26.7207669 C24.8244511,26.7184592 24.8262973,26.7092285 24.8262973,26.7133823" id="Fill-35" fill="#C5CFD6"></path>
                                    <path d="M24.824148,26.7168894 C24.824148,26.7173509 24.8236864,26.718274 24.8236864,26.7191971 C24.8236864,26.7168894 24.8278403,26.7099663 24.824148,26.7168894" id="Fill-37" fill="#C5CFD6"></path>
                                    <path d="M24.8401764,26.6778447 C24.8369457,26.6870755 24.8327918,26.6958447 24.8290995,26.7050755 C24.8309457,26.7004601 24.8327918,26.6967678 24.834638,26.6921524 C24.786638,26.8121524 24.8170995,26.7341524 24.8401764,26.6778447" id="Fill-39" fill="#C5CFD6"></path>
                                    <path d="M24.8298454,26.7056405 C24.8279992,26.7097944 24.8261531,26.7144097 24.8243069,26.7185636 C24.8109223,26.7444097 24.8298454,26.7056405 24.8298454,26.7056405" id="Fill-41" fill="#C5CFD6"></path>
                                    <polygon id="Fill-43" fill="#C5CFD6" points="24.8246819 26.7167751 24.8246819 26.7167751 24.8246819 26.7163136"></polygon>
                                    <path d="M24.8244511,26.7170059 C24.8244511,26.7165444 24.8244511,26.7165444 24.8249126,26.7160828 C24.8244511,26.7165444 24.8244511,26.7165444 24.8244511,26.7170059" id="Fill-45" fill="#C5CFD6"></path>
                                    <path d="M24.8222615,26.7203176 C24.8194923,26.7258561 24.8351846,26.6990869 24.8222615,26.7203176" id="Fill-47" fill="#C5CFD6"></path>
                                    <path d="M24.8242203,26.7170059 L24.8251434,26.7160828 C24.8246819,26.7165444 24.8246819,26.7170059 24.8242203,26.7170059" id="Fill-49" fill="#C5CFD6"></path>
                                    <rect id="Photo-Background" fill="#17BC94" opacity="0.206775484" x="0.300694617" y="0.320269643" width="48.9230769" height="39.6923077" rx="1.84615385"></rect>
                                    <g id="icons8-night_landscape" stroke-width="1" fill="none" transform="translate(7.450695, 13.441219)" opacity="0.371791295">
                                        <polygon id="Mountains" fill="#17BC94" points="14.4016147 0.261337524 0.307717695 23.3382606 28.4955117 23.3382606"></polygon>
                                        <polygon id="Mountains" fill="#17BC94" points="30.2460617 6.32105193 17.7862397 23.2166563 42.7058837 23.2166563"></polygon>
                                    </g>
                                    <circle id="Sun" fill="#FFFFFF" cx="33.7297368" cy="9.42652972" r="3.23076923"></circle>
                                </g>
                            </g>
                        </g>
                    </g>
                </g>
            </g>
        </g>
    </g>
</svg>