<?xml version="1.0" encoding="UTF-8"?>
<svg width="222px" height="259px" viewBox="0 0 222 259" version="1.1" xmlns="http://www.w3.org/2000/svg" xmlns:xlink="http://www.w3.org/1999/xlink">
    <!-- Generator: Sketch 62 (91390) - https://sketch.com -->
    <title>资源 22</title>
    <desc>Created with Sketch.</desc>
    <g id="页面-1" stroke="none" stroke-width="1" fill="none" fill-rule="evenodd">
        <g id="版本更新" transform="translate(-269.000000, -330.000000)">
            <g id="3.通用组件/彩色版/文档" transform="translate(267.000000, 329.000000)">
                <g id="资源-22">
                    <polygon id="矩形" stroke="#707070" stroke-width="6" transform="translate(97.351563, 237.016480) rotate(-57.590000) translate(-97.351563, -237.016480) " points="94.296179 233.956917 100.398058 233.965806 100.406946 240.076042 94.3050673 240.067154"></polygon>
                    <polyline id="路径" fill="#C1C1C1" fill-rule="nonzero" points="161.173009 48.0852167 161.173009 86.8550679 200.070557 86.8550679"></polyline>
                    <path d="M175.532477,16.6161171 L58.0021931,16.6161171 C54.3257774,16.6161171 51.3454536,19.5868686 51.3454536,23.2514763 L51.3454536,204.341489 C51.3454536,208.006097 54.3257774,210.976848 58.0021931,210.976848 L204.173099,210.976848 C207.849515,210.976848 210.829839,208.006097 210.829839,204.341489 L210.829839,52.0710533 L175.532477,16.6161171 Z" id="路径" fill="#597EF7" fill-rule="nonzero" transform="translate(131.087646, 113.796483) rotate(14.000000) translate(-131.087646, -113.796483) "></path>
                    <path d="M192.941201,33.7254154 L192.996673,62.8352894 C192.996673,66.4998971 195.976997,69.4706486 199.653413,69.4706486 L228.238562,69.4706486" id="路径" fill="#E4EBF7" fill-rule="nonzero" transform="translate(210.589881, 51.598032) rotate(14.000000) translate(-210.589881, -51.598032) "></path>
                    <path d="M145.91798,50.0205298 L28.6567396,50.0205298 C24.9803238,50.0205298 22,52.9912814 22,56.6558891 L22,237.745902 C22,241.41051 24.9803238,244.381261 28.6567396,244.381261 L175.10501,244.381261 C178.781426,244.381261 181.761749,241.41051 181.761749,237.745902 L181.761749,88.790381 L156.180454,88.790381 C152.505379,88.790381 145.91798,85.8210577 145.91798,82.1550217 L145.91798,50.0205298 Z" id="路径" fill="#E4EBF7" fill-rule="nonzero" transform="translate(101.880875, 147.200896) rotate(-14.000000) translate(-101.880875, -147.200896) "></path>
                    <polygon id="矩形" stroke="#597EF7" fill="#597EF7" fill-rule="nonzero" transform="translate(41.577779, 101.309520) rotate(-14.000000) translate(-41.577779, -101.309520) " points="26.5777794 86.3095198 56.5777794 86.3095198 56.5777794 116.30952 41.6975652 106.511301 26.5777794 116.30952"></polygon>
                    <rect id="矩形" fill="#597EF7" fill-rule="nonzero" transform="translate(96.287023, 125.923150) rotate(-14.000000) translate(-96.287023, -125.923150) " x="34.1574539" y="121.499577" width="124.259138" height="8.84714567" rx="4.42357283"></rect>
                    <rect id="矩形" fill="#FF7946" fill-rule="nonzero" transform="translate(102.700620, 151.646684) rotate(-14.000000) translate(-102.700620, -151.646684) " x="40.5710513" y="147.223111" width="124.259138" height="8.84714567" rx="4.42357283"></rect>
                    <rect id="矩形" fill="#FFC53D" fill-rule="nonzero" transform="translate(109.121575, 177.399727) rotate(-14.000000) translate(-109.121575, -177.399727) " x="46.992006" y="172.976154" width="124.259138" height="8.84714567" rx="4.42357283"></rect>
                    <path d="M125.257113,37.3421505 L125.257113,69.4766424 C125.257113,73.1412501 128.237437,76.1120017 131.913853,76.1120017 L161.100882,76.1120017" id="路径" fill="#FFFFFF" fill-rule="nonzero" transform="translate(143.178998, 56.727076) rotate(-14.000000) translate(-143.178998, -56.727076) "></path>
                </g>
            </g>
        </g>
    </g>
</svg>